<svg xmlns="http://www.w3.org/2000/svg" xmlns:xlink="http://www.w3.org/1999/xlink" width="77.999" height="111.054" viewBox="0 0 77.999 111.054">
  <defs>
    <clipPath id="clip-path">
      <rect id="Rectángulo_25890" data-name="Rectángulo 25890" width="62" height="92" transform="translate(-0.409 -0.33)" fill="#673ab7"/>
    </clipPath>
  </defs>
  <g id="Grupo_38898" data-name="Grupo 38898" transform="translate(-8828.001 -6048)">
    <circle id="Elipse_1792" data-name="Elipse 1792" cx="34" cy="34" r="34" transform="translate(8838 6091.054)" fill="#d1d6eb"/>
    <g id="Grupo_38896" data-name="Grupo 38896" transform="translate(8660.41 5818.44)">
      <g id="Grupo_38897" data-name="Grupo 38897" transform="translate(168 229.89)">
        <g id="Grupo_38896-2" data-name="Grupo 38896" transform="translate(0 0)" clip-path="url(#clip-path)">
          <path id="Trazado_67732" data-name="Trazado 67732" d="M228.046,263.646c-.155-.159-6.121-3.7-6.121-3.7l.343-.783a2.591,2.591,0,0,0-1.116-3.3,2.92,2.92,0,0,0-3.587.5l-.572.61-8.278-4.993a2.143,2.143,0,0,1-.97-1.933,6.234,6.234,0,0,0-6.1-5h-1.163v-3.62a5.844,5.844,0,1,0-6.541-8.354,1.34,1.34,0,0,0,2.384,1.224,3.163,3.163,0,1,1,3.205,4.579,1.963,1.963,0,0,0-1.729,1.942v4.228h-1.021a6.256,6.256,0,0,0-6.074,4.889,3.575,3.575,0,0,1-1.663,2.425l-7.652,4.616-.572-.611a2.919,2.919,0,0,0-3.587-.494,2.59,2.59,0,0,0-1.116,3.3l.343.784-5.963,3.6a4.109,4.109,0,0,0-1.975,3.5,1.34,1.34,0,0,0,2.68,0,1.415,1.415,0,0,1,.564-1.124h7.306l3.867,8.842a52.077,52.077,0,0,0,3.489,6.622l1.125,1.807A66.21,66.21,0,0,0,172.4,310.607l-2.148,7.907a2.412,2.412,0,0,0,2.328,3.045h8.135a1.34,1.34,0,1,0,0-2.68h-7.785l2.055-7.569a63.525,63.525,0,0,1,14.787-26.57,2.19,2.19,0,0,0,.257-2.647l-1.323-2.127a49.346,49.346,0,0,1-3.308-6.279l-6.788-15.518a.255.255,0,0,1,.257.026l9.211,9.832a15.567,15.567,0,0,0,22.233,0l9.211-9.832a.258.258,0,0,1,.257-.025l-6.788,15.517a49.359,49.359,0,0,1-3.308,6.28l-1.323,2.126a2.189,2.189,0,0,0,.248,2.637l.01.012a63.4,63.4,0,0,1,6.35,8.024,1.34,1.34,0,0,0,2.23-1.488,66.136,66.136,0,0,0-6.364-8.088l1.125-1.807a51.938,51.938,0,0,0,3.488-6.621l3.868-8.842h7.306a1.413,1.413,0,0,1,.564,1.123,1.34,1.34,0,1,0,2.68,0,4.109,4.109,0,0,0-1.818-3.4Zm-51.852-.408,1.351-.815.356.815Zm14.237-8.586a6.243,6.243,0,0,0,2.863-4l.034-.153a3.558,3.558,0,0,1,3.456-2.781h4.864a3.547,3.547,0,0,1,3.447,2.74,4.66,4.66,0,0,0,2.237,3.813l7.789,4.7-4,4.268-.037,0H187.264l-4-4.266Zm8.763,15.363a12.538,12.538,0,0,1-9.161-3.821l-.257-.275h18.837l-.257.275a12.538,12.538,0,0,1-9.161,3.821Zm21.648-7.592,1.351.815h-1.708Zm0,0" transform="translate(-168.398 -229.89)" fill="#673ab7"/>
        </g>
      </g>
      <path id="Trazado_67733" data-name="Trazado 67733" d="M281.176,520.791a66.042,66.042,0,0,0-5.644-14.106,1.34,1.34,0,0,0-2.357,1.276,63.354,63.354,0,0,1,5.415,13.532l2.055,7.569H242.356a1.34,1.34,0,0,0,0,2.68H281a2.412,2.412,0,0,0,2.328-3.045Zm0,0" transform="translate(-55.585 -210.183)" fill="#673ab7"/>
    </g>
  </g>
</svg>
