<svg xmlns="http://www.w3.org/2000/svg" xmlns:xlink="http://www.w3.org/1999/xlink" width="72.756" height="77.667" viewBox="0 0 72.756 77.667">
  <defs>
    <clipPath id="clip-path">
      <rect id="Rectángulo_25907" data-name="Rectángulo 25907" width="58" height="59" transform="translate(0.481 0.458)" fill="#7817aa"/>
    </clipPath>
  </defs>
  <g id="Grupo_38910" data-name="Grupo 38910" transform="translate(-277 -2481.36)">
    <circle id="Elipse_1792" data-name="Elipse 1792" cx="34" cy="34" r="34" transform="translate(277 2491.027)" fill="#d1d6eb"/>
    <g id="Grupo_38909" data-name="Grupo 38909" transform="translate(186.139 2251.47)">
      <g id="Grupo_38908" data-name="Grupo 38908" transform="translate(105.136 230.072)">
        <g id="Grupo_38907" data-name="Grupo 38907" transform="translate(0 0)" clip-path="url(#clip-path)">
          <path id="Trazado_67734" data-name="Trazado 67734" d="M148.231,289.217H121.04a3.713,3.713,0,0,1-3.708-3.708V255.124l-4.783,1.693a3.656,3.656,0,0,1-3-.1,3.707,3.707,0,0,1-1.963-2.363L105.1,244.3a3.679,3.679,0,0,1,1.582-4.066l14.09-9.73a3.744,3.744,0,0,1,2.04-.611h23.414a3.687,3.687,0,0,1,2.111.66l14.367,9.875a3.716,3.716,0,0,1,1.471,4.027l-2.585,9.912a3.69,3.69,0,0,1-1.76,2.267,3.649,3.649,0,0,1-2.838.333l-5.048-1.829v30.373a3.713,3.713,0,0,1-3.708,3.708Zm-29.663-37.079a1.236,1.236,0,0,1,1.236,1.236v32.135a1.237,1.237,0,0,0,1.236,1.236h27.191a1.237,1.237,0,0,0,1.236-1.236V253.373a1.235,1.235,0,0,1,1.658-1.162l6.62,2.405a1.212,1.212,0,0,0,.862-.138,1.235,1.235,0,0,0,.586-.751l2.585-9.912a1.242,1.242,0,0,0-.485-1.355l-14.364-9.875a1.242,1.242,0,0,0-.707-.223H122.807a1.219,1.219,0,0,0-.67.2l-14.091,9.73a1.236,1.236,0,0,0-.558,1.384l2.491,10.058a1.238,1.238,0,0,0,1.673.781l6.5-2.306a1.224,1.224,0,0,1,.41-.069Zm0,0" transform="translate(-105.154 -230.072)" fill="#7817aa"/>
        </g>
      </g>
      <path id="Trazado_67735" data-name="Trazado 67735" d="M242.888,242.25A9.9,9.9,0,0,1,233,232.362v-1.236a1.237,1.237,0,0,1,1.236-1.236h17.3a1.237,1.237,0,0,1,1.236,1.236v1.236a9.9,9.9,0,0,1-9.888,9.888Zm-7.416-9.888a7.416,7.416,0,1,0,14.832,0Zm0,0" transform="translate(-108.271 0)" fill="#7817aa"/>
    </g>
  </g>
</svg>
