<svg xmlns="http://www.w3.org/2000/svg" xmlns:xlink="http://www.w3.org/1999/xlink" width="68" height="78.053" viewBox="0 0 68 78.053">
  <defs>
    <clipPath id="clip-path">
      <rect id="Rectángulo_25908" data-name="Rectángulo 25908" width="55" height="55" transform="translate(0 0)" fill="#7817aa"/>
    </clipPath>
  </defs>
  <g id="Grupo_38916" data-name="Grupo 38916" transform="translate(-280 -2546)">
    <circle id="Elipse_1792" data-name="Elipse 1792" cx="34" cy="34" r="34" transform="translate(280 2556.054)" fill="#d1d6eb"/>
    <g id="Grupo_38913" data-name="Grupo 38913" transform="translate(175 2316.11)">
      <g id="Grupo_38912" data-name="Grupo 38912" transform="translate(105 229.89)">
        <g id="Grupo_38911" data-name="Grupo 38911" transform="translate(0 0)" clip-path="url(#clip-path)">
          <path id="Trazado_67736" data-name="Trazado 67736" d="M231.907,240.753a1.145,1.145,0,0,1-.369-2.23,9.115,9.115,0,0,0,5.871-6.341H219.53a9.113,9.113,0,0,0,5.874,6.341,1.146,1.146,0,1,1-.738,2.17,11.417,11.417,0,0,1-7.645-9.534,1.146,1.146,0,0,1,1.137-1.269h20.625a1.146,1.146,0,0,1,1.139,1.269,11.417,11.417,0,0,1-7.645,9.534,1.161,1.161,0,0,1-.369.059Zm0,0" transform="translate(-200.969 -229.89)" fill="#7817aa"/>
          <path id="Trazado_67737" data-name="Trazado 67737" d="M325.6,284.865h-9.167A3.442,3.442,0,0,1,313,281.427V239.582a1.149,1.149,0,0,1,.777-1.086,9.11,9.11,0,0,0,6.1-7.611,1.145,1.145,0,0,1,1.563-.942l7.287,2.91a10.271,10.271,0,0,1,6.091,6.779,88.029,88.029,0,0,1,3.385,24.2v10.725a3.442,3.442,0,0,1-3.437,3.438h-5.729v3.438a3.442,3.442,0,0,1-3.437,3.438ZM315.292,240.37v41.057a1.148,1.148,0,0,0,1.146,1.146H325.6a1.148,1.148,0,0,0,1.146-1.146v-4.583A1.147,1.147,0,0,1,327.9,275.7h6.875a1.148,1.148,0,0,0,1.146-1.146V263.828a85.654,85.654,0,0,0-3.3-23.563,8.013,8.013,0,0,0-4.739-5.28L321.9,232.6a11.426,11.426,0,0,1-6.611,7.774Zm0,0" transform="translate(-283.208 -229.865)" fill="#7817aa"/>
          <path id="Trazado_67738" data-name="Trazado 67738" d="M410.146,360.265A1.147,1.147,0,0,1,409,359.119V327.036a1.146,1.146,0,0,1,2.292,0v32.083a1.147,1.147,0,0,1-1.146,1.146Zm0,0" transform="translate(-365.458 -312.14)" fill="#7817aa"/>
          <path id="Trazado_67739" data-name="Trazado 67739" d="M126.771,284.9H117.6a3.442,3.442,0,0,1-3.437-3.437v-3.437h-5.729A3.442,3.442,0,0,1,105,274.585V263.86a87.983,87.983,0,0,1,3.385-24.191,10.277,10.277,0,0,1,6.091-6.779l7.287-2.911a1.146,1.146,0,0,1,1.563.94,9.113,9.113,0,0,0,6.1,7.611,1.144,1.144,0,0,1,.777,1.084V281.46a3.442,3.442,0,0,1-3.438,3.438Zm-5.466-52.269-5.979,2.388a8,8,0,0,0-4.739,5.283,85.624,85.624,0,0,0-3.3,23.561v10.725a1.148,1.148,0,0,0,1.146,1.146h6.875a1.147,1.147,0,0,1,1.146,1.146v4.583a1.148,1.148,0,0,0,1.146,1.146h9.167a1.148,1.148,0,0,0,1.146-1.146V240.4a11.426,11.426,0,0,1-6.611-7.774Zm0,0" transform="translate(-105 -229.897)" fill="#7817aa"/>
        </g>
      </g>
      <path id="Trazado_67740" data-name="Trazado 67740" d="M170.146,360.265A1.147,1.147,0,0,1,169,359.119V327.036a1.146,1.146,0,1,1,2.292,0v32.083a1.147,1.147,0,0,1-1.146,1.146Zm0,0" transform="translate(-54.833 -82.25)" fill="#7817aa"/>
      <path id="Trazado_67741" data-name="Trazado 67741" d="M273.021,568.182h-6.875a1.146,1.146,0,0,1,0-2.292h6.875a1.146,1.146,0,1,1,0,2.292Zm0,0" transform="translate(-137.083 -287.875)" fill="#7817aa"/>
      <path id="Trazado_67742" data-name="Trazado 67742" d="M115.313,504.182h-9.167a1.146,1.146,0,0,1,0-2.292h9.167a1.146,1.146,0,0,1,0,2.292Zm0,0" transform="translate(0 -233.042)" fill="#7817aa"/>
      <path id="Trazado_67743" data-name="Trazado 67743" d="M419.313,504.182h-9.167a1.146,1.146,0,1,1,0-2.292h9.167a1.146,1.146,0,0,1,0,2.292Zm0,0" transform="translate(-260.458 -233.042)" fill="#7817aa"/>
    </g>
  </g>
</svg>
