<svg xmlns="http://www.w3.org/2000/svg" width="536" height="341.644" viewBox="0 0 536 341.644">
  <g id="Group_26964" data-name="Group 26964" transform="translate(0 0)">
    <path id="Path_67577" data-name="Path 67577" d="M-358.095,663.958c111.639-46.151,127.8,68.867,186.492,57.932s79.234,1.747,104.89,51.952C-28.968,847.7-76.691,947.1-150.034,935.784c-132.9-20.5-157.442,33.412-253.944,14.451s-114.04-140.59-34.873-178.317C-399.7,753.265-443.717,699.353-358.095,663.958Z" transform="translate(492.767 -652.983)" fill="#d1bcff"/>
    <path id="Path_67578" data-name="Path 67578" d="M-61.849,689.736c-89.408-36.961-102.354,55.155-149.356,46.4s-63.454,1.4-84,41.607c-30.228,59.15,7.991,138.754,66.73,129.695,106.433-16.415,126.09,26.759,203.375,11.573S66.231,806.413,2.827,776.2C-28.531,761.256,6.723,718.083-61.849,689.736Z" transform="translate(493.211 -652.915)" fill="#673ab7"/>
    <g id="Group_26941" data-name="Group 26941" transform="translate(394.395 107.371)">
      <path id="Path_67579" data-name="Path 67579" d="M-51.247,903.9s22.013-5.789,23.256-29.171-12.049-22.956,1.627-40.5,1.368-17.8-2.392-38.556c-3.308-18.29,9.222-28.648-2.857-34.276-15.547-7.244-14.276,17.783-23.684,22.136s-33.994,17.153-22.286,29.536-5.459,8.783-16.9,34.731S-99.16,927.373-51.247,903.9Z" transform="translate(99.317 -760.094)" fill="#9fa8da"/>
      <path id="Path_67580" data-name="Path 67580" d="M-72.147,890.738c-.461-47.749,23.7-88.915,23.947-89.323l1.478.878c-.243.407-24.158,41.175-23.705,88.428Z" transform="translate(99.382 -759.994)" fill="#41294a"/>
    </g>
    <path id="Path_67581" data-name="Path 67581" d="M-441.213,965.807s-68.582,1.143-47.528,14.836c11.8,7.676,106.339,18.884,170.287,9.859s138.608-10.966,188.966-2.579c123.874,20.63,169.979-18.846,135.656-20.972C-84.96,961.3-441.213,965.807-441.213,965.807Z" transform="translate(492.757 -652.228)" fill="#e3e3e2"/>
    <g id="Group_26946" data-name="Group 26946" transform="translate(163.907 115.082)">
      <g id="Group_26942" data-name="Group 26942">
        <rect id="Rectangle_25730" data-name="Rectangle 25730" width="258.657" height="205.739" fill="#895cd8"/>
        <rect id="Rectangle_25731" data-name="Rectangle 25731" width="229.122" height="182.246" transform="translate(14.768 11.745)" fill="#f6b9c0"/>
      </g>
      <g id="Group_26943" data-name="Group 26943" transform="translate(32.792 35.601)">
        <rect id="Rectangle_25732" data-name="Rectangle 25732" width="88.11" height="123.775" transform="translate(0 8.518)" fill="#fff"/>
        <circle id="Ellipse_1791" data-name="Ellipse 1791" cx="8.577" cy="8.577" r="8.577" transform="translate(32.472)" fill="#ffd54f" opacity="0.9" style="isolation: isolate"/>
      </g>
      <path id="Path_67582" data-name="Path 67582" d="M-208.9,920.957H-224.2v-109.1l15.6-.059Z" transform="translate(329.502 -767.679)" fill="#e3e3e2"/>
      <g id="Group_26945" data-name="Group 26945" transform="translate(116.148 17.318)">
        <rect id="Rectangle_25733" data-name="Rectangle 25733" width="88.11" height="123.775" transform="translate(0 7.39)" fill="#fff"/>
        <circle id="Ellipse_1792" data-name="Ellipse 1792" cx="8.577" cy="8.577" r="8.577" transform="translate(35.478)" fill="#673ab7"/>
        <g id="Group_26944" data-name="Group 26944" transform="translate(14.126 27.977)">
          <path id="Path_67583" data-name="Path 67583" d="M-152.82,825.643c-8.019-2.948-7.2-11.872-7.2-11.872h-.125c0-1.066-14.642-1.066-14.642,0h-.125s.819,8.922-7.2,11.872-12.773,9.169-4.748,18.012,9.585,17.685,9.585,17.685h17.914a60.985,60.985,0,0,1,11.3-17.685C-140.048,834.812-144.8,828.59-152.82,825.643Z" transform="translate(199.308 -812.972)" fill="#41294a"/>
          <path id="Path_67584" data-name="Path 67584" d="M-189.5,840.046s25.931.5,31.69-18.183l7.105,3.385s3.919,8.949,3.919,16.88c0,4.685-11.612,15.946-11.612,15.946s26.027,7.878,21.043,47.421h-61.724s-3.779-30.388,21.151-47.421C-177.936,858.074-187.337,854.218-189.5,840.046Z" transform="translate(199.288 -812.95)" fill="#673ab7"/>
        </g>
      </g>
    </g>
    <g id="Group_26947" data-name="Group 26947" transform="translate(53.265 113.59)">
      <path id="Path_67585" data-name="Path 67585" d="M-410.3,901.536s-20.7-5.443-21.874-27.428,11.327-21.593-1.53-38.085-1.287-16.741,2.249-36.26c3.116-17.2-8.671-26.942,2.686-32.235,14.62-6.816,13.424,16.724,22.274,20.817s31.969,16.132,20.958,27.777,5.134,8.26,15.893,32.662S-365.239,923.61-410.3,901.536Z" transform="translate(439.621 -766.297)" fill="#9fa8da"/>
      <path id="Path_67586" data-name="Path 67586" d="M-390.711,889.16l-1.719-.017c.43-44.424-22.058-82.753-22.286-83.135l1.478-.879C-413.009,805.515-390.277,844.241-390.711,889.16Z" transform="translate(439.682 -766.203)" fill="#41294a"/>
    </g>
    <g id="Group_26948" data-name="Group 26948" transform="translate(1.613 181.68)">
      <path id="Path_67587" data-name="Path 67587" d="M-426.425,957.48s-21.352,1.476-29.508-18.975,13.561-33.834-4.219-39.142c-13.276-3.964-22.632-7.933-19.59-27.541s-20.85-18.329-7.109-35.371c8.444-10.474,23.628,19.627,32.007,14.643,10.754-6.4,34.149,5.085,27.449,19.648s8.267,2.991,26.277,22.66S-376.67,963.954-426.425,957.48Z" transform="translate(491.148 -834.222)" fill="#895cd8"/>
      <path id="Path_67588" data-name="Path 67588" d="M-418.245,942.065a.859.859,0,0,1-.847-.721c-6.874-42.06-45.4-75.877-45.787-76.214a.86.86,0,0,1-.088-1.214.861.861,0,0,1,1.214-.089h0c.394.341,39.382,34.553,46.357,77.235a.859.859,0,0,1-.708.987h0A.815.815,0,0,1-418.245,942.065Z" transform="translate(491.211 -834.151)" fill="#41294a"/>
    </g>
    <g id="Group_26949" data-name="Group 26949" transform="translate(418.728 168.58)">
      <path id="Path_67589" data-name="Path 67589" d="M-34.025,952.219s22.707,1.569,31.376-20.178-14.419-35.976,4.487-41.62c14.116-4.21,24.064-8.436,20.83-29.285s22.168-19.49,7.559-37.611C21.249,812.388,5.1,844.4-3.807,839.1c-11.435-6.8-36.312,5.413-29.188,20.89s-8.79,3.18-27.941,24.094S-86.933,959.1-34.025,952.219Z" transform="translate(75.043 -821.154)" fill="#895cd8"/>
      <path id="Path_67590" data-name="Path 67590" d="M-42.018,935.05l-1.7-.277c7.418-45.367,48.857-81.733,49.274-82.1l1.127,1.3C6.274,854.336-34.706,890.308-42.018,935.05Z" transform="translate(75.119 -821.078)" fill="#41294a"/>
    </g>
    <g id="Group_26950" data-name="Group 26950" transform="translate(172.913 45.912)">
      <circle id="Ellipse_1793" data-name="Ellipse 1793" cx="36.938" cy="36.938" r="36.938" transform="translate(1.391 1.312)" fill="#895cd8"/>
      <path id="Path_67591" data-name="Path 67591" d="M-318.543,744.136a1.719,1.719,0,0,1-1.72-1.717,1.72,1.72,0,0,1,.752-1.424A225,225,0,0,1-296.9,727.94c17.585-8.866,32.972-13.81,45.735-14.7a1.719,1.719,0,0,1,1.834,1.6,1.719,1.719,0,0,1-1.6,1.834h0c-29.418,2.043-66.277,26.914-66.647,27.166A1.7,1.7,0,0,1-318.543,744.136Z" transform="translate(320.263 -698.748)" fill="#ffd54f" opacity="0.9" style="isolation: isolate"/>
      <path id="Path_67592" data-name="Path 67592" d="M-314.4,755.843a1.719,1.719,0,0,1-1.719-1.72,1.721,1.721,0,0,1,.8-1.452,259.269,259.269,0,0,1,23.457-12.8c18.025-8.675,33.3-13.466,45.41-14.234a1.719,1.719,0,0,1,1.834,1.6,1.719,1.719,0,0,1-1.595,1.834h-.021c-27.9,1.777-66.854,26.264-67.244,26.507A1.708,1.708,0,0,1-314.4,755.843Z" transform="translate(320.273 -698.718)" fill="#ffd54f" opacity="0.9" style="isolation: isolate"/>
      <path id="Path_67593" data-name="Path 67593" d="M-307.206,764.857a1.718,1.718,0,0,1-1.721-1.716,1.72,1.72,0,0,1,.869-1.5c.1-.057,10.094-5.727,22.745-11.317,17.1-7.555,30.674-11.386,40.352-11.386a1.72,1.72,0,0,1,1.723,1.716,1.719,1.719,0,0,1-1.716,1.722h-.007c-22.038,0-61,22.03-61.4,22.254A1.694,1.694,0,0,1-307.206,764.857Z" transform="translate(320.291 -698.686)" fill="#ffd54f" opacity="0.9" style="isolation: isolate"/>
      <path id="Path_67594" data-name="Path 67594" d="M-290.557,726.357a1.72,1.72,0,0,1-1.6-1.081c-2.474-6.184-8.734-19.83-8.8-19.967a1.719,1.719,0,0,1,.846-2.28,1.719,1.719,0,0,1,2.279.845h0c.063.138,6.358,13.862,8.863,20.125a1.72,1.72,0,0,1-.957,2.235A1.723,1.723,0,0,1-290.557,726.357Z" transform="translate(320.31 -698.773)" fill="#ffd54f" opacity="0.9" style="isolation: isolate"/>
      <path id="Path_67595" data-name="Path 67595" d="M-279.674,722.169a1.719,1.719,0,0,1-1.7-1.457c-.655-4.253-5.994-15.468-8-19.43a1.719,1.719,0,0,1,.76-2.31,1.719,1.719,0,0,1,2.31.759h0c.3.6,7.453,14.8,8.32,20.458a1.719,1.719,0,0,1-1.437,1.961A1.7,1.7,0,0,1-279.674,722.169Z" transform="translate(320.338 -698.783)" fill="#ffd54f" opacity="0.9" style="isolation: isolate"/>
      <path id="Path_67596" data-name="Path 67596" d="M-267.272,719.071a1.719,1.719,0,0,1-1.669-1.316c-1.672-6.917-7.346-16.263-7.4-16.358a1.72,1.72,0,0,1,.573-2.363,1.719,1.719,0,0,1,2.363.573c.245.4,6.015,9.909,7.808,17.342a1.722,1.722,0,0,1-1.272,2.077,1.736,1.736,0,0,1-.4.047Z" transform="translate(320.369 -698.783)" fill="#ffd54f" opacity="0.9" style="isolation: isolate"/>
      <path id="Path_67597" data-name="Path 67597" d="M-294.719,729.678a1.719,1.719,0,0,1-1.055-.362c-2.893-2.25-15.137-6.277-19.618-7.639a1.72,1.72,0,0,1-1.144-2.146,1.72,1.72,0,0,1,2.146-1.144c1.709.52,16.812,5.169,20.728,8.214a1.72,1.72,0,0,1,.3,2.413,1.723,1.723,0,0,1-1.36.664Z" transform="translate(320.272 -698.736)" fill="#ffd54f" opacity="0.9" style="isolation: isolate"/>
      <path id="Path_67598" data-name="Path 67598" d="M-293.053,720.884a1.708,1.708,0,0,1-1.1-.4c-4.718-3.932-15.165-7.192-15.27-7.224a1.718,1.718,0,0,1-1.134-2.15,1.719,1.719,0,0,1,2.15-1.135h0c.456.14,11.214,3.5,16.454,7.868a1.72,1.72,0,0,1,.222,2.422,1.717,1.717,0,0,1-1.324.619Z" transform="translate(320.286 -698.756)" fill="#ffd54f" opacity="0.9" style="isolation: isolate"/>
      <path id="Path_67599" data-name="Path 67599" d="M-275.929,775.009a1.719,1.719,0,0,1-1.717-1.721,1.724,1.724,0,0,1,.307-.978c6.454-9.3,4.867-25.708,4.851-25.873a1.72,1.72,0,0,1,1.55-1.874,1.719,1.719,0,0,1,1.871,1.523c.074.724,1.738,17.834-5.446,28.184A1.715,1.715,0,0,1-275.929,775.009Z" transform="translate(320.366 -698.672)" fill="#ffd54f" opacity="0.9" style="isolation: isolate"/>
      <path id="Path_67600" data-name="Path 67600" d="M-290.751,774.526a1.717,1.717,0,0,1-1.718-1.717,1.731,1.731,0,0,1,.135-.671c.048-.114,4.835-11.512,6.064-19.908a1.72,1.72,0,0,1,1.952-1.451,1.719,1.719,0,0,1,1.451,1.952h0c-1.293,8.835-6.1,20.265-6.3,20.75A1.719,1.719,0,0,1-290.751,774.526Z" transform="translate(320.33 -698.657)" fill="#703c62"/>
      <path id="Path_67601" data-name="Path 67601" d="M-307.722,735.95a1.717,1.717,0,0,1-1.119-.414c-2.134-1.829-7.906-3.38-9.95-3.822a1.719,1.719,0,0,1-1.317-2.044,1.719,1.719,0,0,1,2.044-1.317h0c.838.182,8.285,1.85,11.462,4.573a1.72,1.72,0,0,1,.186,2.425,1.72,1.72,0,0,1-1.306.6Z" transform="translate(320.263 -698.711)" fill="#ffd54f" opacity="0.9" style="isolation: isolate"/>
      <path id="Path_67602" data-name="Path 67602" d="M-261.571,769.163a1.72,1.72,0,0,1-1.716-1.723,1.715,1.715,0,0,1,.189-.783c5.06-9.789,3.5-22.033,3.484-22.154a1.719,1.719,0,0,1,1.476-1.933,1.719,1.719,0,0,1,1.933,1.475c.073.543,1.729,13.422-3.838,24.194A1.715,1.715,0,0,1-261.571,769.163Z" transform="translate(320.401 -698.677)" fill="#ffd54f" opacity="0.9" style="isolation: isolate"/>
    </g>
    <g id="Group_26951" data-name="Group 26951" transform="translate(249.159 50.086)">
      <path id="Path_67603" data-name="Path 67603" d="M-164.221,702.947v47.672h-20.049V721l14.628-18.058Z" transform="translate(244.346 -702.947)" fill="#7986cb"/>
      <path id="Path_67604" data-name="Path 67604" d="M-164.221,768.347V720.675h-20.049v29.619l14.628,18.058Z" transform="translate(244.346 -702.904)" fill="#7986cb"/>
      <path id="Path_67605" data-name="Path 67605" d="M-244.2,768.347V720.675h20.049v29.619l-14.628,18.058Z" transform="translate(244.201 -702.904)" fill="#7986cb"/>
      <path id="Path_67606" data-name="Path 67606" d="M-244.2,702.947v47.672h20.049V721l-14.628-18.058Z" transform="translate(244.201 -702.947)" fill="#7986cb"/>
      <rect id="Rectangle_25734" data-name="Rectangle 25734" width="40.032" height="29.329" transform="translate(20.048 18.058)" fill="#ffd54f" opacity="0.9" style="isolation: isolate"/>
      <path id="Path_67607" data-name="Path 67607" d="M-220.834,751.87a1.379,1.379,0,0,1-.144-.008,1.29,1.29,0,0,1-1.139-1.424l3.331-29.9a1.29,1.29,0,0,1,1.423-1.14,1.289,1.289,0,0,1,1.12,1.017l4.59,21.874,2.665-21.766a1.29,1.29,0,0,1,1.439-1.121,1.289,1.289,0,0,1,1.111,1.053l4.125,23.316,4.711-22.555a1.292,1.292,0,0,1,1.256-1.025h.006a1.29,1.29,0,0,1,1.26,1.014l4.42,20.219L-189,720.859a1.289,1.289,0,0,1,1.389-1.181,1.289,1.289,0,0,1,1.181,1.388h0l-2.351,29.2a1.29,1.29,0,0,1-1.2,1.183,1.3,1.3,0,0,1-1.346-1.011l-4.981-22.785-4.841,23.193a1.33,1.33,0,0,1-1.283,1.026,1.292,1.292,0,0,1-1.25-1.066l-3.788-21.415-2.562,20.927a1.29,1.29,0,0,1-1.439,1.121,1.29,1.29,0,0,1-1.1-1.012l-4.535-21.606-2.439,21.9A1.291,1.291,0,0,1-220.834,751.87Z" transform="translate(244.255 -702.907)" fill="#673ab7"/>
    </g>
    <g id="Group_26952" data-name="Group 26952" transform="translate(357.343 34.561)">
      <path id="Path_67608" data-name="Path 67608" d="M-70.877,767.441h-47.67V747.392h29.616l18.058,14.628Z" transform="translate(136.322 -687.315)" fill="#ffd54f" opacity="0.9" style="isolation: isolate"/>
      <path id="Path_67609" data-name="Path 67609" d="M-136.278,767.441h47.672V747.392h-29.616l-18.058,14.628Z" transform="translate(136.279 -687.315)" fill="#ffd54f" opacity="0.9" style="isolation: isolate"/>
      <path id="Path_67610" data-name="Path 67610" d="M-136.278,687.46h47.672v20.048h-29.616l-18.058-14.628Z" transform="translate(136.279 -687.46)" fill="#ffd54f" opacity="0.9" style="isolation: isolate"/>
      <path id="Path_67611" data-name="Path 67611" d="M-70.877,687.46h-47.67v20.048h29.616l18.058-14.628Z" transform="translate(136.322 -687.46)" fill="#ffd54f" opacity="0.9" style="isolation: isolate"/>
      <rect id="Rectangle_25735" data-name="Rectangle 25735" width="29.329" height="40.032" transform="translate(18.059 20.048)" fill="#d1bcff"/>
      <path id="Path_67612" data-name="Path 67612" d="M-88.93,745.23a.647.647,0,0,1-.1-.005l-29.2-2.351a1.289,1.289,0,0,1-1.185-1.385,1.289,1.289,0,0,1,1.012-1.16l22.786-4.981-23.194-4.842a1.289,1.289,0,0,1-1-1.524,1.29,1.29,0,0,1,1.04-1.008l21.415-3.788-20.928-2.563a1.29,1.29,0,0,1-1.12-1.44,1.291,1.291,0,0,1,1.012-1.1l21.607-4.533-21.905-2.441a1.289,1.289,0,0,1-1.154-1.411,1.289,1.289,0,0,1,1.411-1.154l.028,0,29.9,3.331a1.289,1.289,0,0,1,1.139,1.424,1.287,1.287,0,0,1-1.017,1.12l-21.873,4.59,21.766,2.665a1.289,1.289,0,0,1,1.124,1.436,1.287,1.287,0,0,1-1.056,1.114l-23.317,4.125,22.555,4.711a1.289,1.289,0,0,1,1,1.524,1.29,1.29,0,0,1-.989,1L-109.386,741l20.563,1.656a1.291,1.291,0,0,1,1.173,1.4,1.29,1.29,0,0,1-1.273,1.177Z" transform="translate(136.319 -687.406)" fill="#7986cb"/>
    </g>
    <g id="Group_26953" data-name="Group 26953" transform="translate(131.504 114.362)">
      <path id="Path_67613" data-name="Path 67613" d="M-339.7,924.612h-21.871V793.044l10.935-25.972,10.935,25.972Z" transform="translate(361.572 -767.068)" fill="#fff"/>
      <path id="Path_67614" data-name="Path 67614" d="M-361.572,792.982l6.287,5.041,4.648-5.563,4.785,5.563,6.151-5.041V924.551h-21.871Z" transform="translate(361.572 -767.006)" fill="#ffd54f" opacity="0.9" style="isolation: isolate"/>
      <path id="Path_67615" data-name="Path 67615" d="M-355.3,798.023V924.458h9.432V798.023l-4.785-5.563Z" transform="translate(361.587 -767.006)" fill="#673ab7"/>
      <rect id="Rectangle_25736" data-name="Rectangle 25736" width="21.871" height="7.093" transform="translate(0 150.451)" fill="#fff"/>
      <rect id="Rectangle_25737" data-name="Rectangle 25737" width="21.871" height="7.093" transform="translate(0 157.545)" fill="#e94e65"/>
      <path id="Path_67616" data-name="Path 67616" d="M-356.514,781h11.728l-5.865-13.934Z" transform="translate(361.584 -767.068)" fill="#673ab7"/>
    </g>
    <g id="Group_26954" data-name="Group 26954" transform="translate(93.938 125.895)">
      <path id="Path_67617" data-name="Path 67617" d="M-347.9,929.526l-21.3,4.961-29.842-128.139,4.759-27.775,16.54,22.814Z" transform="translate(399.047 -778.573)" fill="#fff"/>
      <path id="Path_67618" data-name="Path 67618" d="M-399.047,806.293l7.268,3.484,3.265-6.472,5.921,4.332,4.848-6.305L-347.9,929.469l-21.3,4.961Z" transform="translate(399.047 -778.518)" fill="#673ab7"/>
      <path id="Path_67619" data-name="Path 67619" d="M-391.8,809.773l28.68,123.139,9.186-2.139-28.68-123.14-5.921-4.331Z" transform="translate(399.065 -778.513)" fill="#ffd54f" opacity="0.9" style="isolation: isolate"/>
      <rect id="Rectangle_25738" data-name="Rectangle 25738" width="21.871" height="7.093" transform="translate(28.233 149.007) rotate(-13.111)" fill="#fff"/>
      <rect id="Rectangle_25739" data-name="Rectangle 25739" width="21.871" height="7.093" transform="translate(29.841 155.915) rotate(-13.111)" fill="#e94e65"/>
      <path id="Path_67620" data-name="Path 67620" d="M-396.847,793.47l11.428-2.66-8.872-12.237Z" transform="translate(399.052 -778.573)" fill="#ffd54f" opacity="0.9" style="isolation: isolate"/>
    </g>
    <rect id="Rectangle_25740" data-name="Rectangle 25740" width="75.449" height="101.455" transform="translate(90.528 219.367)" fill="#673ab7"/>
    <g id="Group_26955" data-name="Group 26955" transform="translate(156.79 79.199)">
      <path id="Path_67621" data-name="Path 67621" d="M-271.074,766.093c-10.61-3.9-9.523-15.7-9.523-15.7h-.165c0-1.409-2-2.635-4.975-3.277a21.111,21.111,0,0,1-2.013-6,4.962,4.962,0,0,0,1.474-6.861,4.963,4.963,0,0,0-6.862-1.474,4.964,4.964,0,0,0-1.473,6.862,4.957,4.957,0,0,0,1.473,1.473,21.048,21.048,0,0,1-2.013,6c-2.966.641-4.975,1.867-4.975,3.277h-.169s1.083,11.8-9.523,15.7-16.89,12.129-6.279,23.819,12.677,23.387,12.677,23.387h23.686a80.657,80.657,0,0,1,14.945-23.387C-254.184,778.219-260.463,769.99-271.074,766.093Z" transform="translate(336.383 -731.99)" fill="#41294a"/>
      <path id="Path_67622" data-name="Path 67622" d="M-270.255,780.966c-8.866-8.769-20.688,2.923-20.688,2.923s-11.822-11.692-20.687-2.923-2.111,17.051,3.8,20.951c0,0-1.266,16.564-4.643,20.461a95.566,95.566,0,0,0,22.012,5.953,80.207,80.207,0,0,0,21.051-5.953c-3.377-3.9-4.644-20.461-4.644-20.461C-268.144,798.017-261.389,789.735-270.255,780.966Z" transform="translate(336.397 -731.879)" fill="#895cd8"/>
      <path id="Path_67623" data-name="Path 67623" d="M-306.688,778.052a10.945,10.945,0,0,0-4.942,2.913c-8.866,8.769-2.111,17.051,3.8,20.951,0,0-1.266,16.564-4.643,20.462a95.579,95.579,0,0,0,22.012,5.953,80.214,80.214,0,0,0,21.051-5.953,14.288,14.288,0,0,1-2.247-5.2C-298.529,812.672-305.1,788.52-306.688,778.052Z" transform="translate(336.397 -731.878)" fill="#d1bcff"/>
      <rect id="Rectangle_25741" data-name="Rectangle 25741" width="7.468" height="26.324" transform="translate(42.2 196.654)" fill="#41294a"/>
      <path id="Path_67624" data-name="Path 67624" d="M-290.471,951.994a21.437,21.437,0,0,0-21.437,21.435h42.873A21.436,21.436,0,0,0-290.471,951.994Z" transform="translate(336.406 -731.456)" fill="#41294a"/>
      <path id="Path_67625" data-name="Path 67625" d="M-290.441,851.8c-13.562,0-33.737-2-33.737-7.518s20.175-7.518,33.737-7.518,33.736,2,33.736,7.518S-276.881,851.8-290.441,851.8Zm0-13.316c-19.837,0-32.018,3.377-32.018,5.8s12.181,5.8,32.018,5.8,32.016-3.377,32.016-5.8S-270.605,838.48-290.441,838.48Z" transform="translate(336.376 -731.736)" fill="#41294a"/>
      <path id="Path_67626" data-name="Path 67626" d="M-290.427,872.164c-16.076,0-40-2-40-7.518s23.918-7.518,40-7.518,40,2,40,7.518S-274.35,872.164-290.427,872.164Zm0-13.316c-23.365,0-38.275,3.435-38.275,5.8s14.91,5.8,38.275,5.8,38.275-3.434,38.275-5.8S-267.063,858.848-290.427,858.848Z" transform="translate(336.361 -731.686)" fill="#41294a"/>
      <path id="Path_67627" data-name="Path 67627" d="M-290.415,896.878a215.67,215.67,0,0,1-30.932-1.961c-13.488-2.062-13.488-4.693-13.488-5.557s0-3.5,13.488-5.559a245.144,245.144,0,0,1,61.863,0C-246,885.864-246,888.5-246,889.36s0,3.5-13.488,5.557A215.648,215.648,0,0,1-290.415,896.878Zm0-13.317c-28.035,0-42.7,3.775-42.7,5.8s14.665,5.8,42.7,5.8,42.7-3.775,42.7-5.8S-262.382,883.561-290.415,883.561Z" transform="translate(336.351 -731.626)" fill="#41294a"/>
      <path id="Path_67628" data-name="Path 67628" d="M-290.412,918.969a230.649,230.649,0,0,1-32-1.96c-12.492-1.844-13.934-4.056-13.934-5.558s1.445-3.709,13.934-5.558a262.31,262.31,0,0,1,64,0c12.492,1.845,13.934,4.056,13.934,5.558s-1.446,3.714-13.934,5.558A230.626,230.626,0,0,1-290.412,918.969Zm0-13.317c-29.032,0-44.22,3.775-44.22,5.8s15.188,5.8,44.22,5.8,44.219-3.775,44.219-5.8S-261.381,905.652-290.412,905.652Z" transform="translate(336.347 -731.572)" fill="#41294a"/>
      <path id="Path_67629" data-name="Path 67629" d="M-336.347,911.656c0-.56,0-56.479,24.568-90.419l1.393,1.007c-24.241,33.49-24.245,88.846-24.243,89.4Z" transform="translate(336.347 -731.773)" fill="#41294a"/>
      <path id="Path_67630" data-name="Path 67630" d="M-244.633,911.656l-1.719-.008c0-.556-.009-55.922-24.243-89.4l1.393-1.007C-244.636,855.177-244.63,911.1-244.633,911.656Z" transform="translate(336.507 -731.773)" fill="#41294a"/>
      <path id="Path_67631" data-name="Path 67631" d="M-265.885,917.3l-1.719-.015c0-.4.179-40.82-13.911-90.777l1.655-.467C-265.7,876.252-265.881,916.9-265.885,917.3Z" transform="translate(336.48 -731.761)" fill="#41294a"/>
      <path id="Path_67632" data-name="Path 67632" d="M-316.061,917.3c0-.4-.185-41.051,13.976-91.259l1.654.467c-14.09,49.957-13.914,90.375-13.911,90.777Z" transform="translate(336.396 -731.761)" fill="#41294a"/>
      <path id="Path_67633" data-name="Path 67633" d="M-289.537,829.042a42.77,42.77,0,0,1-22.1-6.593.86.86,0,0,1-.213-1.2.86.86,0,0,1,1.2-.212c.2.143,20.637,14.058,40.357.005a.862.862,0,0,1,1.2.2.861.861,0,0,1-.2,1.2h0A34.237,34.237,0,0,1-289.537,829.042Z" transform="translate(336.406 -731.774)" fill="#41294a"/>
      <rect id="Rectangle_25742" data-name="Rectangle 25742" width="1.719" height="138.425" transform="translate(45.075 96.451)" fill="#41294a"/>
    </g>
    <path id="Path_67634" data-name="Path 67634" d="M-419.022,924.686a48.459,48.459,0,0,0-48.457,48.457h96.916A48.458,48.458,0,0,0-419.022,924.686Z" transform="translate(492.819 -652.323)" fill="#ffd54f" opacity="0.9" style="isolation: isolate"/>
    <g id="Group_26958" data-name="Group 26958" transform="translate(84.976 45.965)">
      <g id="Group_26956" data-name="Group 26956" transform="translate(9.745 9.854)">
        <circle id="Ellipse_1794" data-name="Ellipse 1794" cx="20.493" cy="20.493" r="20.493" fill="#ffd54f" opacity="0.9" style="isolation: isolate"/>
        <path id="Path_67635" data-name="Path 67635" d="M-377.783,754.817h-10.25s1.042-6.444-5.675-12.841h15.923Z" transform="translate(398.277 -708.585)" fill="#ffd54f" opacity="0.9" style="isolation: isolate"/>
        <path id="Path_67636" data-name="Path 67636" d="M-377.822,754.817h10.247s-1.041-6.444,5.675-12.841h-15.922Z" transform="translate(398.315 -708.585)" fill="#ffd54f" opacity="0.9" style="isolation: isolate"/>
        <path id="Rectangle_25743" data-name="Rectangle 25743" d="M-387.988,753.541h20.349v10.114a5.569,5.569,0,0,1-5.569,5.569h-9.21a5.569,5.569,0,0,1-5.569-5.569h0V753.541Z" transform="translate(398.291 -708.557)" fill="#41294a"/>
        <rect id="Rectangle_25744" data-name="Rectangle 25744" width="10.1" height="12.24" rx="4.195" transform="translate(15.794 53.919)" fill="#41294a"/>
        <path id="Path_67637" data-name="Path 67637" d="M-383.989,758.655c-.2-.691-4.968-16.991-1.712-22.993,1.089-2,2.226-2.241,2.989-2.087a2.287,2.287,0,0,1,.64.239c.072-.129.147-.255.224-.378,1.2-1.922,2.69-2.823,4.093-2.472a6.242,6.242,0,0,1,2.907,1.566,2.542,2.542,0,0,1,.364-.29,2.429,2.429,0,0,1,2.861.285c4.441,3.033-.021,23.75-.544,26.1l-.84-.186c1.387-6.234,4.253-22.915.9-25.206-.763-.521-1.387-.609-1.9-.273a1.651,1.651,0,0,0-.264.215,7.022,7.022,0,0,1,1.121,5.614c-.328,1.389-1.047,2.139-1.879,1.952-.593-.132-1.011-.785-1.209-1.887a9.16,9.16,0,0,1,.857-5.641,5.355,5.355,0,0,0-2.572-1.418c-1.449-.359-2.688,1.344-3.156,2.094q-.135.217-.259.442a8.326,8.326,0,0,1,2.076,4.592c.114,1.221-.288,1.651-.645,1.8-1.6.656-2.446.19-2.872-.315-1.008-1.195-.626-3.721.354-5.829a1.468,1.468,0,0,0-.421-.161c-.87-.181-1.6.8-2.062,1.654-3.086,5.691,1.732,22.175,1.781,22.341Zm2.205-23.5c-.828,1.9-1.036,3.922-.38,4.7.352.418.987.442,1.89.073.03-.012.178-.235.114-.921a7.676,7.676,0,0,0-1.621-3.851Zm6.973-1.224a8.5,8.5,0,0,0-.593,4.775c.159.888.429,1.173.55,1.2.256.054.644-.417.855-1.311a6.175,6.175,0,0,0-.809-4.667Z" transform="translate(398.293 -708.612)" fill="#673ab7"/>
      </g>
      <g id="Group_26957" data-name="Group 26957">
        <path id="Path_67638" data-name="Path 67638" d="M-377.713,704.242a.86.86,0,0,1-.86-.859V699.7a.86.86,0,0,1,.86-.859.859.859,0,0,1,.859.859v3.688a.858.858,0,0,1-.859.859Z" transform="translate(408.058 -698.836)" fill="#673ab7"/>
        <path id="Path_67639" data-name="Path 67639" d="M-367.293,705.756a.877.877,0,0,1-.254-.038.862.862,0,0,1-.569-1.075l1.084-3.524a.862.862,0,0,1,1.1-.527.86.86,0,0,1,.547,1.029l-1.084,3.524A.859.859,0,0,1-367.293,705.756Z" transform="translate(408.084 -698.832)" fill="#673ab7"/>
        <path id="Path_67640" data-name="Path 67640" d="M-359.775,711.213a.86.86,0,0,1-.858-.862.865.865,0,0,1,.226-.578l2.492-2.717A.86.86,0,0,1-356.7,707a.859.859,0,0,1,.052,1.214h0l-2.5,2.715A.856.856,0,0,1-359.775,711.213Z" transform="translate(408.102 -698.817)" fill="#673ab7"/>
        <path id="Path_67641" data-name="Path 67641" d="M-354.038,718.547a.86.86,0,0,1-.859-.861.862.862,0,0,1,.405-.729l3.132-1.946a.862.862,0,0,1,1.193.241.861.861,0,0,1-.241,1.193c-.015.009-.03.019-.045.027l-3.132,1.946A.841.841,0,0,1-354.038,718.547Z" transform="translate(408.116 -698.797)" fill="#673ab7"/>
        <path id="Path_67642" data-name="Path 67642" d="M-348.33,726.915h-.078l-3.672-.331a.86.86,0,0,1-.779-.933.861.861,0,0,1,.933-.779l3.672.331a.86.86,0,0,1,.785.928.858.858,0,0,1-.861.787Z" transform="translate(408.121 -698.773)" fill="#673ab7"/>
        <path id="Path_67643" data-name="Path 67643" d="M-358.339,752.641a.858.858,0,0,1-.64-.285l-2.469-2.739a.859.859,0,0,1,.063-1.214.86.86,0,0,1,1.214.063l2.469,2.739a.861.861,0,0,1-.063,1.215.862.862,0,0,1-.574.221Z" transform="translate(408.099 -698.716)" fill="#673ab7"/>
        <path id="Path_67644" data-name="Path 67644" d="M-352.465,745.664a.853.853,0,0,1-.557-.2l-2.807-2.391a.861.861,0,0,1-.132-1.209.86.86,0,0,1,1.209-.132l.038.032,2.807,2.391a.859.859,0,0,1,.094,1.213.858.858,0,0,1-.653.3Z" transform="translate(408.113 -698.732)" fill="#673ab7"/>
        <path id="Path_67645" data-name="Path 67645" d="M-349.009,736.971a.86.86,0,0,1-.293-.051l-3.466-1.256a.861.861,0,0,1-.551-1.084.86.86,0,0,1,1.085-.551c.017,0,.034.012.051.018l3.467,1.256a.86.86,0,0,1,.513,1.1A.86.86,0,0,1-349.009,736.971Z" transform="translate(408.12 -698.751)" fill="#673ab7"/>
        <path id="Path_67646" data-name="Path 67646" d="M-388.165,705.756a.861.861,0,0,1-.822-.607l-1.084-3.525a.86.86,0,0,1,.617-1.049.858.858,0,0,1,1.028.547l1.084,3.525a.86.86,0,0,1-.569,1.075A.852.852,0,0,1-388.165,705.756Z" transform="translate(408.03 -698.832)" fill="#673ab7"/>
        <path id="Path_67647" data-name="Path 67647" d="M-395.681,711.213a.853.853,0,0,1-.634-.279l-2.493-2.717a.859.859,0,0,1,.053-1.214.859.859,0,0,1,1.214.052l2.492,2.717a.859.859,0,0,1-.054,1.215A.853.853,0,0,1-395.681,711.213Z" transform="translate(408.009 -698.817)" fill="#673ab7"/>
        <path id="Path_67648" data-name="Path 67648" d="M-401.416,718.547a.843.843,0,0,1-.453-.129L-405,716.472a.86.86,0,0,1-.313-1.175.86.86,0,0,1,1.176-.313c.015.008.03.018.044.027l3.132,1.946a.86.86,0,0,1,.275,1.185A.858.858,0,0,1-401.416,718.547Z" transform="translate(407.993 -698.797)" fill="#673ab7"/>
        <path id="Path_67649" data-name="Path 67649" d="M-407.123,726.915a.859.859,0,0,1-.864-.853.86.86,0,0,1,.787-.862l3.673-.331a.86.86,0,0,1,.933.779.859.859,0,0,1-.779.933h0l-3.672.331Z" transform="translate(407.987 -698.773)" fill="#673ab7"/>
        <path id="Path_67650" data-name="Path 67650" d="M-397.113,752.641a.86.86,0,0,1-.859-.86.864.864,0,0,1,.221-.575l2.469-2.739a.859.859,0,0,1,1.214-.063.859.859,0,0,1,.063,1.214h0l-2.469,2.739A.857.857,0,0,1-397.113,752.641Z" transform="translate(408.011 -698.716)" fill="#673ab7"/>
        <path id="Path_67651" data-name="Path 67651" d="M-402.99,745.664a.86.86,0,0,1-.859-.86.862.862,0,0,1,.3-.654l2.807-2.391a.861.861,0,0,1,1.209.132.859.859,0,0,1-.094,1.177l-2.807,2.391A.851.851,0,0,1-402.99,745.664Z" transform="translate(407.997 -698.732)" fill="#673ab7"/>
        <path id="Path_67652" data-name="Path 67652" d="M-406.445,736.971a.86.86,0,0,1-.858-.862.861.861,0,0,1,.565-.806l3.467-1.256a.861.861,0,0,1,1.089.543.86.86,0,0,1-.5,1.073l-3.467,1.256A.853.853,0,0,1-406.445,736.971Z" transform="translate(407.989 -698.751)" fill="#673ab7"/>
      </g>
      <path id="Path_67653" data-name="Path 67653" d="M-361.827,731.094A1.177,1.177,0,0,1-363,729.952c-.369-12.9-10.134-13.681-10.55-13.708a1.176,1.176,0,0,1-1.088-1.258,1.177,1.177,0,0,1,1.24-1.089c.123.008,12.319.973,12.748,15.988a1.175,1.175,0,0,1-1.142,1.209Z" transform="translate(408.068 -698.799)" fill="#fff"/>
    </g>
    <circle id="Ellipse_1795" data-name="Ellipse 1795" cx="10.756" cy="10.756" r="10.756" transform="translate(78.748 266.092)" fill="#fff"/>
    <rect id="Rectangle_25745" data-name="Rectangle 25745" width="1.721" height="31.214" transform="translate(56.355 258.507) rotate(-10.658)" fill="#41294a"/>
    <circle id="Ellipse_1796" data-name="Ellipse 1796" cx="10.756" cy="10.756" r="10.756" transform="translate(46.443 247.592)" fill="#fff"/>
    <path id="Path_67654" data-name="Path 67654" d="M-467.479,973.115h59.593c-23.1-10.24-34.874-25.916-40.829-38.28A48.362,48.362,0,0,0-467.479,973.115Z" transform="translate(492.819 -652.299)" fill="#673ab7"/>
    <rect id="Rectangle_25746" data-name="Rectangle 25746" width="1.719" height="26.56" transform="matrix(0.567, -0.824, 0.824, 0.567, 26.722, 289.722)" fill="#41294a"/>
    <circle id="Ellipse_1797" data-name="Ellipse 1797" cx="10.756" cy="10.756" r="10.756" transform="translate(16.452 278.258)" fill="#fff"/>
    <g id="Group_26959" data-name="Group 26959" transform="translate(285.215 23.625)">
      <path id="Path_67655" data-name="Path 67655" d="M-184.636,755.943s-5.949,11.921-6.686,11.86-3.5-1.9-3.5-1.9l1.042-3.626s-2.333,2.213-3.562,1.9-9.707-3.617-10.815-5.4,10.69,2.265,16.089-6.4Z" transform="translate(208.233 -676.366)" fill="#41294a"/>
      <path id="Path_67656" data-name="Path 67656" d="M-133.728,735.352s-18-27.587-34.065-24.445-34.095,37.2-31.743,39.3,18.27,15.308,21.552,11.5c5.513-6.4,16.46-19.384,16.191-18.271s18.253,19.539,24.544,20.349,18.23-10.8,18.531-13.617S-133.728,735.352-133.728,735.352Z" transform="translate(208.253 -676.468)" fill="#fff"/>
      <path id="Path_67657" data-name="Path 67657" d="M-117.792,700.99s-4.785,6.048-7.2,5.433c-3.531-.9-3.208-3.853-4.252-3.718s-8.944,2.519-11.728,5.313-3.717,6.25-4.235,12.536,5.432,11.278,6.68,14.822-7.039,22.059-6,23.671c0,0,34.641,11.86,45.069-1.84,1.765-2.319.413-18.176,1.689-25.489s.675-14.021.164-22.684C-98.086,700.99-117.792,700.99-117.792,700.99Z" transform="translate(208.386 -676.491)" fill="#f19680"/>
      <path id="Path_67658" data-name="Path 67658" d="M-137.541,795.81s3.125,12.951,2.521,13.379-3.909.8-3.909.8l-1.537-3.443s-.36,3.195-1.5,3.752-9.757,3.483-11.749,2.835,9.636-5.151,8.187-15.257Z" transform="translate(208.364 -676.261)" fill="#41294a"/>
      <path id="Path_67659" data-name="Path 67659" d="M-115.959,701.024s-6.233.144-8.538-10.674c-.857-4.026-4.369-3.72-5.048-2.371s4.8,16.44-3.634,17.37C-134.218,705.466-125.355,719.188-115.959,701.024Z" transform="translate(208.415 -676.525)" fill="#f19680"/>
      <path id="Path_67660" data-name="Path 67660" d="M-131.922,688.845s.326,8.721,3.989,6.817c9.163-4.749,2.342-12.415.456-12.252A5.313,5.313,0,0,0-131.922,688.845Z" transform="translate(208.418 -676.534)" fill="#f19680"/>
      <path id="Path_67661" data-name="Path 67661" d="M-129.926,684.53s.046,4.588,4.018,5.525c1.744.411,1.024-2.192,2.025-1.2,1.653,1.633-.325,1.529-.351,2.907-.066,3.509,4.386,1.663,4.634-3.473a6.868,6.868,0,0,0-3.567-6.03,7.063,7.063,0,0,0-8.708,1.228c-1.567,1.954-2.75,7.669-1.4,7.057S-129.4,687.212-129.926,684.53Z" transform="translate(208.413 -676.539)" fill="#41294a"/>
      <path id="Path_67662" data-name="Path 67662" d="M-124.751,692.857a5.042,5.042,0,0,1-2.7,2.69,21.435,21.435,0,0,1-.161,4.611C-127.731,700.663-122.234,697.511-124.751,692.857Z" transform="translate(208.428 -676.511)" fill="#e75b5d" opacity="0.5" style="isolation: isolate"/>
      <circle id="Ellipse_1798" data-name="Ellipse 1798" cx="4.52" cy="4.52" r="4.52" transform="translate(83.415)" fill="#41294a"/>
      <circle id="Ellipse_1799" data-name="Ellipse 1799" cx="4.52" cy="4.52" r="4.52" transform="translate(69.014 1.75)" fill="#41294a"/>
      <path id="Path_67663" data-name="Path 67663" d="M-97.776,742.3s-56.383-2.135-64.744,7.792,6.84,48.918,6.315,52.053,22.509-3.073,25.122-4.641-6.262-29.484-6.262-29.484,30.366,1.3,35.386-1.239C-91.051,761.276-97.776,742.3-97.776,742.3Z" transform="translate(208.337 -676.391)" fill="#fff"/>
      <path id="Path_67664" data-name="Path 67664" d="M-133.535,735.575s.517,4.261,8.242,4.061c2.516-.065,35.936,8.5,24.217-9.511a37.687,37.687,0,0,0-5.614-6.431s-23.7,2.7-25.89,3.91S-133.535,735.575-133.535,735.575Z" transform="translate(208.413 -676.436)" fill="#e75b5d" opacity="0.5" style="isolation: isolate"/>
      <path id="Path_67665" data-name="Path 67665" d="M-145.247,717.473s.379.488,7.217-3.7,17.909-2.7,24.86-2.173,7.8,7.189,6.5,12.129-25.553,3.252-31.363,4.967S-145.247,717.473-145.247,717.473Z" transform="translate(208.386 -676.467)" fill="#995288"/>
      <path id="Path_67666" data-name="Path 67666" d="M-162.526,718.632l29.061-8.33,9.083,32.366-29.261,8.36Z" transform="translate(208.344 -676.468)" fill="#41294a"/>
      <path id="Path_67667" data-name="Path 67667" d="M-98.143,707.161s11.553,22.992,1.1,29.785-30.327-1.4-33.32,0c-7.694,3.609-3.757-4.717,2.767-4.56,4.817.115,18.3-1.427,18.3-6.13s-3.9-17.242-3.9-17.242Z" transform="translate(208.411 -676.476)" fill="#f19680"/>
      <path id="Path_67668" data-name="Path 67668" d="M-161,724.179s.588-1.4,4.31,0-.8,2.554-2.022,6.121S-163.2,727.092-161,724.179Z" transform="translate(208.346 -676.436)" fill="#f19680"/>
    </g>
    <g id="Group_26960" data-name="Group 26960" transform="translate(69.622 173.84)">
      <path id="Path_67669" data-name="Path 67669" d="M-397.024,848.238s1.22,5.017,10.064,5.735,7.618-5.138,12.953-4.66,4.368-3.347,3.237-7.171-3.438-3.709-2.763-9.2-5.3-8.366-10.917-5.259-4.183,7.171-7.052,11.829S-396.757,842.967-397.024,848.238Z" transform="translate(423.368 -826.401)" fill="#fff"/>
      <path id="Path_67670" data-name="Path 67670" d="M-386.392,846.97s5.413,5.493,7.749,4.621c3.408-1.275,2.769-4.177,3.824-4.156s4.747-.6,7.819,1.872,8.788,7.948,9.985,14.142,2.082,10.313,1.225,13.971,3.126,22.655,2.267,24.37c0,0-28.056,11-39.908-1.491-2-2.114,8.61-18.926,6.55-26.057s-7.035-18.608-6.732-22.394S-386.392,846.97-386.392,846.97Z" transform="translate(423.376 -826.352)" fill="#fff"/>
      <path id="Path_67671" data-name="Path 67671" d="M-359.538,865.391s12.35-1.889,12.35-2.76-6.972-18.445-24.5-15.2C-371.693,847.435-360.263,862.486-359.538,865.391Z" transform="translate(423.429 -826.351)" fill="#fff"/>
      <path id="Path_67672" data-name="Path 67672" d="M-386.41,847.006s5.367,0,5.15-11.059c-.08-4.115,3.408-4.616,4.378-3.456s-2.52,15.8,5.905,14.78C-369.939,847.146-373.13,862.558-386.41,847.006Z" transform="translate(423.393 -826.388)" fill="#f19680"/>
      <path id="Path_67673" data-name="Path 67673" d="M-374.385,832.794s1.665,8.564-2.333,7.548c-10-2.54-5.1-11.557-3.232-11.829A5.313,5.313,0,0,1-374.385,832.794Z" transform="translate(423.402 -826.396)" fill="#f19680"/>
      <path id="Path_67674" data-name="Path 67674" d="M-377.3,829.043s1,4.477-2.655,6.293c-1.6.8-1.5-1.9-2.245-.711-1.238,1.966.664,1.414,1,2.755.862,3.4-3.679,4.153-5.089-.792-.289-1.012-.184-2.541,1.476-6.063s7.2-4.489,9.172-2.942,4.422,6.843,2.969,6.554S-377.2,831.776-377.3,829.043Z" transform="translate(423.393 -826.4)" fill="#fff"/>
      <path id="Path_67675" data-name="Path 67675" d="M-380.465,838.333a5.044,5.044,0,0,0,3.237,2s-.29,2.813.4,4.177C-376.592,844.978-381.863,843.434-380.465,838.333Z" transform="translate(423.407 -826.372)" fill="#e75b5d" opacity="0.5" style="isolation: isolate"/>
      <path id="Path_67676" data-name="Path 67676" d="M-359.308,971.922s0,13.323.687,13.6,3.983-.137,3.983-.137l.687-3.709s1.1,3.022,2.335,3.3,10.3,1.1,12.087,0-10.576-2.748-11.537-12.911Z" transform="translate(423.459 -826.048)" fill="#41294a"/>
      <path id="Path_67677" data-name="Path 67677" d="M-413.509,959.157s-9.578,9.26-9.3,9.945,2.867,2.769,2.867,2.769l3.144-2.084s-1.4,2.89-.747,3.97,6.37,8.17,8.4,8.69-5.376-9.513,1.262-17.269Z" transform="translate(423.305 -826.079)" fill="#41294a"/>
      <path id="Path_67678" data-name="Path 67678" d="M-369.038,975.651s22.115.889,25.225,0,1.7-41.627,1.7-46.513-9.924-45.78-12.258-49.481c-1.658-2.632-29.332-1.777-33.333,1.778s-10.666,40.887-14.221,46.665-20.888,21.333-20.888,24.443,12.444,21.333,15.555,21.777,30.665-25.332,33.332-33.776,5.289-30.5,5.289-30.5,1.822,19.393,1.378,26.5S-369.038,975.651-369.038,975.651Z" transform="translate(423.305 -826.276)" fill="#9fa8da"/>
      <path id="Path_67679" data-name="Path 67679" d="M-387.184,847.76s8.008,17.367,10.638,28.856-1.673,30.134-5.737,33.958c-4.019,3.782-11.235,1.195-19.123-1.913s12.789-24.259,11.474-34.421-6.265-13.625-5.259-15.538,1.195-3.945,3.227-8.008S-387.184,847.76-387.184,847.76Z" transform="translate(423.353 -826.35)" fill="#41294a"/>
      <path id="Path_67680" data-name="Path 67680" d="M-392.809,850.04s-30.421,12.042-27.667,24.058,26.2,7.379,31.988,13.2c4.264,4.285,8.468,2.089,1.835-4.638-2.851-2.891-23.025-5.536-17.218-10.112s13.433-5.288,15.382-8.549S-392.809,850.04-392.809,850.04Z" transform="translate(423.31 -826.344)" fill="#f19680"/>
      <path id="Path_67681" data-name="Path 67681" d="M-387.135,847.76s4.6,11.661,3.947,15.6-15.538,7.769-16.256,9.681,8.246,3.824,8.721,6.573-.358,4.423-3.824,6.816-15.179.478-23.187-6.573-6.817-12.072,0-17.689S-388.928,846.26-387.135,847.76Z" transform="translate(423.304 -826.35)" fill="#41294a"/>
      <path id="Path_67682" data-name="Path 67682" d="M-368.769,846.97s7.127,9.623,9.323,20.543.279,34.664,3.879,41.645c2.111,4.092,10.32,3.3,13.424,0,5.39-5.732-6.5-21.447-7.088-34.183s-4.925-23.679-10.216-26.226A16.3,16.3,0,0,0-368.769,846.97Z" transform="translate(423.436 -826.352)" fill="#41294a"/>
      <path id="Path_67683" data-name="Path 67683" d="M-337.672,868.34s1.723,5.4-8.034,2.352-17.481-33.449-21.27-33.656-1.316-2.782,5.026-.708S-334.294,857.634-337.672,868.34Z" transform="translate(423.436 -826.379)" fill="#f19680"/>
      <path id="Path_67684" data-name="Path 67684" d="M-364.332,844.6s3.365-9.222,9.523-6.261,13.8,15.5,19.087,22.359,2.031,15.437-7.117,15.947-12.675-18.733-16.619-23.9S-364.7,845.464-364.332,844.6Z" transform="translate(423.447 -826.374)" fill="#41294a"/>
    </g>
    <g id="Group_26961" data-name="Group 26961" transform="translate(251.24 176.083)">
      <path id="Path_67685" data-name="Path 67685" d="M-32.5,938.473V846.838S-50.7,829.5-91.433,829.5c-33.944,0-68.491,30.08-107.651,14.535a116.57,116.57,0,0,0,26.436,49.6h76.014v40.42C-78.533,937.8-57.335,939.535-32.5,938.473Z" transform="translate(242.229 -828.637)" fill="#d1bcff"/>
      <rect id="Rectangle_25747" data-name="Rectangle 25747" width="19.934" height="60.669" transform="translate(213.198 26.001)" fill="#995288"/>
      <circle id="Ellipse_1800" data-name="Ellipse 1800" cx="22.26" cy="22.26" r="22.26" transform="translate(146.366 16.051)" fill="#703c62"/>
      <path id="Path_67686" data-name="Path 67686" d="M-223.085,828.639h-11.262v88.4h11.267s6.067-23.4,36.4-23.4h14.121a116.57,116.57,0,0,1-26.436-49.6A81.048,81.048,0,0,1-223.085,828.639Z" transform="translate(242.144 -828.639)" fill="#673ab7"/>
      <path id="Path_67687" data-name="Path 67687" d="M-32.394,938.22c-24.836,1.063-46.034-.677-64.135-4.411v19.382h-145.6v19.926h209.74V953.188h-.009Z" transform="translate(242.125 -828.384)" fill="#673ab7"/>
    </g>
    <g id="Group_26963" data-name="Group 26963" transform="translate(376.57 149.837)">
      <path id="Path_67688" data-name="Path 67688" d="M-69.122,861.762a42.938,42.938,0,0,1-11.2.324c-6.532-.6-12.931-14.559-14.171-15.947s2.885-1.442,8.946,0S-69.122,861.762-69.122,861.762Z" transform="translate(117.153 -802.354)" fill="#f19680"/>
      <path id="Path_67689" data-name="Path 67689" d="M-36.234,850.173s-5.367,2.294-7.706,1.422c-3.408-1.275-3.89-6.015-4.946-6s-3.626,1.236-6.7,3.709-10.541,6.786-11.737,12.98S-69,876.074-68.14,879.731s-1.779,20.344-.922,22.059c0,0,28.057,11,39.908-1.491,2-2.114-1.8-15.38.254-22.512s.067-20.128-.237-23.914S-36.234,850.173-36.234,850.173Z" transform="translate(117.215 -802.352)" fill="#ae6a8f"/>
      <path id="Path_67690" data-name="Path 67690" d="M-63.084,865.4s-12.347-1.889-12.347-2.76,9.03-20.287,26.564-17.036C-48.871,845.6-62.357,862.491-63.084,865.4Z" transform="translate(117.2 -802.353)" fill="#ae6a8f"/>
      <path id="Path_67691" data-name="Path 67691" d="M-34.192,850.2s-5.1-1.678-1.433-12.114c1.362-3.883-1.794-5.451-3.077-4.652s-2.546,15.792-10.231,12.193C-49.881,845.185-51.669,860.822-34.192,850.2Z" transform="translate(117.263 -802.382)" fill="#f19680"/>
      <path id="Path_67692" data-name="Path 67692" d="M-41.191,832.94s-4.259,7.619-.144,7.9c10.3.716,8.462-9.381,6.767-10.225A5.313,5.313,0,0,0-41.191,832.94Z" transform="translate(117.278 -802.39)" fill="#f19680"/>
      <path id="Path_67693" data-name="Path 67693" d="M-37.241,830.292s-2.348,3.941.555,6.808c1.274,1.259,2.015-1.338,2.355.026.561,2.255-1.073,1.137-1.814,2.306-1.883,2.96,2.2,5.1,5.081.84.591-.872.97-2.357.494-6.221s-5.437-6.516-7.792-5.663-6.339,5.112-4.87,5.3S-38.186,832.857-37.241,830.292Z" transform="translate(117.277 -802.394)" fill="#41294a"/>
      <path id="Path_67694" data-name="Path 67694" d="M-37.161,840.1a5.039,5.039,0,0,1-3.7.894s-.6,2.763-1.688,3.842C-42.918,845.2-37.435,845.386-37.161,840.1Z" transform="translate(117.28 -802.366)" fill="#e75b5d" opacity="0.5" style="isolation: isolate"/>
      <circle id="Ellipse_1801" data-name="Ellipse 1801" cx="5.581" cy="5.581" r="5.581" transform="translate(83.025 20.129)" fill="#41294a"/>
      <path id="Path_67695" data-name="Path 67695" d="M-72.087,971.922s0,13.323-.687,13.6-3.983-.137-3.983-.137l-.688-3.709s-1.1,3.022-2.335,3.3-10.3,1.1-12.086,0,10.576-2.748,11.537-12.911Z" transform="translate(117.16 -802.046)" fill="#41294a"/>
      <path id="Path_67696" data-name="Path 67696" d="M-15.854,966.289s4.774,12.438,4.23,12.94-3.767,1.3-3.767,1.3l-1.971-3.216s.057,3.215-1,3.909-9.222,4.718-11.284,4.332,8.89-6.354,6.145-16.188Z" transform="translate(117.311 -802.06)" fill="#41294a"/>
      <path id="Path_67697" data-name="Path 67697" d="M-65.167,978.232s-22.354.889-25.468,0,4.761-42.1,6.238-46.761c2.9-9.138,16.282-42.06,16.282-45.17s38.844-.81,43.714,1.41c2.959,1.348-2.075,37.579,4.606,49.984,3.217,5.972,9.819,28.483,9.819,31.594s-22.312,8.548-25.424,8.992-8.172-24.929-10.838-33.374-3.108-32-3.108-32-9.83,23.686-9.386,30.8S-65.167,978.232-65.167,978.232Z" transform="translate(117.161 -802.257)" fill="#fff"/>
      <g id="Group_26962" data-name="Group 26962" transform="translate(0)">
        <path id="Path_67698" data-name="Path 67698" d="M19.968,921.731,2.175,939.525-104.864,832.486l-12.23-30.027,30.027,12.23Z" transform="translate(117.099 -802.457)" fill="#fff"/>
        <path id="Path_67699" data-name="Path 67699" d="M-104.895,832.455l9.217-1.013-.744-8.306,8.42.633.9-9.106L19.94,921.7,2.147,939.5Z" transform="translate(117.129 -802.427)" fill="#ffd54f" opacity="0.9" style="isolation: isolate"/>
        <path id="Path_67700" data-name="Path 67700" d="M-95.7,831.42,7.166,934.284l7.674-7.674L-88.027,823.747l-8.42-.632Z" transform="translate(117.149 -802.407)" fill="#673ab7"/>
        <rect id="Rectangle_25748" data-name="Rectangle 25748" width="25.164" height="8.161" transform="translate(113.503 131.297) rotate(-45)" fill="#fff"/>
        <rect id="Rectangle_25749" data-name="Rectangle 25749" width="25.164" height="8.161" transform="translate(119.274 137.067) rotate(-45)" fill="#d1bcff"/>
        <path id="Path_67701" data-name="Path 67701" d="M-110.537,818.561l9.543-9.543-16.1-6.561Z" transform="translate(117.099 -802.457)" fill="#673ab7"/>
      </g>
      <path id="Path_67702" data-name="Path 67702" d="M-19.93,868.363s1.588,23.308-9.978,23.514-24.125-10.582-27.534-9.406-3.415-3.135,3.247-3.135,19.1-4.857,19.1-4.857-3.263-12.852-1.383-12.424S-19.23,862.038-19.93,868.363Z" transform="translate(117.238 -802.312)" fill="#f19680"/>
      <path id="Path_67703" data-name="Path 67703" d="M-36.965,872.711l18.052.628s1.415-23.177-15.307-23.177A35.742,35.742,0,0,0-36.965,872.711Z" transform="translate(117.292 -802.341)" fill="#ae6a8f"/>
      <path id="Path_67704" data-name="Path 67704" d="M-94.764,842.544s-.407-1,3.1-1.088,1.37,2.639-.436,4.153S-97.451,845.8-94.764,842.544Z" transform="translate(117.151 -802.362)" fill="#f19680"/>
    </g>
  </g>
</svg>
