<svg xmlns="http://www.w3.org/2000/svg" width="905.5" height="75.274" viewBox="0 0 905.5 75.274">
  <g id="Grupo_27015" data-name="Grupo 27015" transform="translate(-230.5 -1001.863)">
    <circle id="Elipse_1792" data-name="Elipse 1792" cx="25" cy="25" r="25" transform="translate(658 1014.863)" fill="#d1d6eb"/>
    <line id="Línea_256" data-name="Línea 256" x2="400" transform="translate(735.5 1039.5)" fill="none" stroke="#9fa8da" stroke-linecap="round" stroke-width="1"/>
    <line id="Línea_257" data-name="Línea 257" x2="400" transform="translate(231 1039.5)" fill="none" stroke="#9fa8da" stroke-linecap="round" stroke-width="1"/>
    <g id="Grupo_27014" data-name="Grupo 27014" transform="translate(447 771.973)">
      <path id="Trazado_67676" data-name="Trazado 67676" d="M249.531,405.886l-1.093-.318a1.889,1.889,0,0,1-1.291-1.32l-1.436-5.388a6.858,6.858,0,0,0-3.618-4.4l-4.995-2.44v-4.51h9.767a2.233,2.233,0,0,0,2.231-2.23v-3.568a14.041,14.041,0,0,0-1.957-7.148l-1.089-1.839a8.8,8.8,0,0,1-.506-7.971l1.333-3.084a1.1,1.1,0,1,0-2.018-.872l-1.333,3.085a11,11,0,0,0,.632,9.962l1.089,1.838a11.845,11.845,0,0,1,1.651,6.029v3.568a.033.033,0,0,1-.033.032H225.134l-.033-.032.009-4.033a1.1,1.1,0,1,0-2.2-.086s-.011,3.427-.011,4.118a2.233,2.233,0,0,0,2.231,2.23H234.9v4.511l-4.995,2.439a6.855,6.855,0,0,0-3.618,4.4l-1.436,5.388a1.888,1.888,0,0,1-1.291,1.319l-1.093.318a2.037,2.037,0,0,0,.568,3.993h2.847a3.7,3.7,0,0,0,3.321-2.091l2.533-5.287a1.66,1.66,0,0,1,1.211-.916l.051-.009.69,6.235a2.324,2.324,0,0,0,4.62,0l.69-6.235.05.009a1.659,1.659,0,0,1,1.211.916l2.532,5.287a3.7,3.7,0,0,0,3.321,2.091h2.847a2.037,2.037,0,0,0,.569-3.993Zm-19.775-4.335-2.533,5.287a1.491,1.491,0,0,1-1.339.843h-1.719l.009,0a4.1,4.1,0,0,0,2.8-2.865l1.436-5.388a4.659,4.659,0,0,1,2.46-2.989l4.03-1.968v4.544l-2.329.406a3.863,3.863,0,0,0-2.817,2.133Zm6.37,6.018a.127.127,0,0,1-.252,0l-.7-6.372.83-.145.831.145Zm9.989.113a1.491,1.491,0,0,1-1.339-.843l-2.533-5.287a3.863,3.863,0,0,0-2.816-2.133l-2.329-.406v-4.544l4.03,1.968a4.662,4.662,0,0,1,2.46,2.989l1.435,5.388a4.1,4.1,0,0,0,2.8,2.865l.009,0Zm0,0" transform="translate(0 -104.715)" fill="#7817aa"/>
      <path id="Trazado_67677" data-name="Trazado 67677" d="M229.589,260.041a8.8,8.8,0,0,1-.506,7.971L228,269.851a14.032,14.032,0,0,0-.813,1.6,1.1,1.1,0,0,0,2.018.87,11.851,11.851,0,0,1,.686-1.348l1.088-1.838a10.993,10.993,0,0,0,.632-9.962l-4.428-10.248a1,1,0,0,1,.643-1.361l6.627-1.906a2.728,2.728,0,0,0,1.965-2.61v-2.8h5.44v2.8a2.729,2.729,0,0,0,1.965,2.61l6.628,1.906a1,1,0,0,1,.643,1.361l-1.2,2.785a1.1,1.1,0,1,0,2.017.872l1.2-2.786a3.2,3.2,0,0,0-2.053-4.345l-6.628-1.906a.52.52,0,0,1-.374-.5v-3.251a1.748,1.748,0,0,0-1.746-1.746h-2.074V236.6a3.448,3.448,0,1,0-2.2,0v1.445h-2.074a1.747,1.747,0,0,0-1.746,1.745v3.251a.52.52,0,0,1-.374.5l-6.627,1.906a3.2,3.2,0,0,0-2.053,4.346Zm9.545-27.954a1.25,1.25,0,1,1-1.25,1.25,1.251,1.251,0,0,1,1.25-1.25Zm0,0" transform="translate(-3.134)" fill="#7817aa"/>
    </g>
  </g>
</svg>
