<svg xmlns="http://www.w3.org/2000/svg" width="101.729" height="80.528" viewBox="0 0 101.729 80.528">
  <g id="Grupo_38851" data-name="Grupo 38851" transform="translate(-266.271 -1181.736)">
    <circle id="Elipse_1792" data-name="Elipse 1792" cx="34" cy="34" r="34" transform="translate(300 1188)" fill="#d1d6eb"/>
    <g id="Grupo_38850" data-name="Grupo 38850" transform="translate(141.271 951.846)">
      <path id="Trazado_67692" data-name="Trazado 67692" d="M243.723,246.432a1.18,1.18,0,0,0,1.18-1.18V233.43a1.181,1.181,0,0,1,1.18-1.18h9.072a1.18,1.18,0,0,0,0-2.36h-9.072a3.544,3.544,0,0,0-3.54,3.54v11.822a1.18,1.18,0,0,0,1.18,1.18Zm0,0" transform="translate(-92.893 0)" fill="#7817aa"/>
      <path id="Trazado_67693" data-name="Trazado 67693" d="M351.244,229.89h-25.6a1.18,1.18,0,1,0,0,2.36h21.222v.236a1.18,1.18,0,0,0,2.36,0v-.236h2.017a1.181,1.181,0,0,1,1.18,1.18v31.49a1.189,1.189,0,0,1-.461.936l-4.37,3.36a26.54,26.54,0,0,0-10.366,21.042v3.622a1.18,1.18,0,0,0,2.36,0v-3.622a24.331,24.331,0,0,1,9.444-19.171l4.37-3.359a3.562,3.562,0,0,0,1.383-2.807V233.43a3.544,3.544,0,0,0-3.54-3.54Zm0,0" transform="translate(-157.635 0)" fill="#7817aa"/>
      <path id="Trazado_67694" data-name="Trazado 67694" d="M180.773,337.407a1.18,1.18,0,0,0-1.18,1.18v7.224a1.181,1.181,0,0,1-1.18,1.18H157.8v-1.046a1.18,1.18,0,0,0-2.359,0v1.046H153.19a1.182,1.182,0,0,1-1.18-1.18V320.456h19.255a2.409,2.409,0,0,0,2.407-2.407v-19.99a17,17,0,0,1,2.855-9.444l4.162-6.255a2.062,2.062,0,0,0-1.717-3.2H160.223a2.409,2.409,0,0,0-2.406,2.406,7.5,7.5,0,0,1-7.493,7.494h-6.607a7.5,7.5,0,0,1-7.493-7.494,2.409,2.409,0,0,0-2.407-2.406h-6.412A2.409,2.409,0,0,0,125,281.562v36.488a2.409,2.409,0,0,0,2.407,2.406H149.65v25.357a3.544,3.544,0,0,0,3.539,3.54h25.223a3.544,3.544,0,0,0,3.54-3.54v-7.224a1.18,1.18,0,0,0-1.18-1.18ZM127.36,318.049V281.563a.046.046,0,0,1,.047-.047h6.412a.046.046,0,0,1,.046.047,9.865,9.865,0,0,0,9.853,9.853h6.607a9.865,9.865,0,0,0,9.853-9.853.046.046,0,0,1,.047-.047h11.214l-.242.45a1.18,1.18,0,0,0,2.038,1.189l.957-1.639h4.225l-3.854,5.792a19.347,19.347,0,0,0-3.25,10.752v19.99a.046.046,0,0,1-.047.047H127.407a.047.047,0,0,1-.047-.047Zm0,0" transform="translate(0 -38.935)" fill="#7817aa"/>
      <path id="Trazado_67695" data-name="Trazado 67695" d="M432.473,272.409a1.18,1.18,0,0,0,1.18-1.18v-4.8a1.18,1.18,0,1,0-2.36,0v4.8a1.18,1.18,0,0,0,1.18,1.18Zm0,0" transform="translate(-242.061 -27.944)" fill="#7817aa"/>
      <path id="Trazado_67696" data-name="Trazado 67696" d="M431.293,322.724a1.18,1.18,0,1,0,2.36,0v-4.8a1.18,1.18,0,0,0-2.36,0Zm0,0" transform="translate(-242.061 -68.641)" fill="#7817aa"/>
      <path id="Trazado_67697" data-name="Trazado 67697" d="M431.293,374.218a1.18,1.18,0,0,0,2.36,0v-4.8a1.18,1.18,0,1,0-2.36,0Zm0,0" transform="translate(-242.061 -109.335)" fill="#7817aa"/>
      <path id="Trazado_67698" data-name="Trazado 67698" d="M272.5,487.261a1.18,1.18,0,0,0-2.36,0V492.2a1.18,1.18,0,1,0,2.36,0Zm0,0" transform="translate(-114.7 -202.466)" fill="#7817aa"/>
      <path id="Trazado_67699" data-name="Trazado 67699" d="M271.316,539.05a1.18,1.18,0,0,0-1.18,1.18v4.937a1.18,1.18,0,0,0,2.36,0V540.23a1.18,1.18,0,0,0-1.18-1.18Zm0,0" transform="translate(-114.7 -244.327)" fill="#7817aa"/>
      <path id="Trazado_67700" data-name="Trazado 67700" d="M151.945,436.331H146.91a1.18,1.18,0,1,0,0,2.36h5.035a1.18,1.18,0,0,0,0-2.36Zm0,0" transform="translate(-16.383 -163.149)" fill="#7817aa"/>
      <path id="Trazado_67701" data-name="Trazado 67701" d="M205.964,436.331H200.93a1.18,1.18,0,0,0,0,2.36h5.034a1.18,1.18,0,0,0,0-2.36Zm0,0" transform="translate(-59.074 -163.149)" fill="#7817aa"/>
      <path id="Trazado_67702" data-name="Trazado 67702" d="M325.559,316.055a1.18,1.18,0,0,0-1.563.585,25.292,25.292,0,0,0-1.669,5,1.18,1.18,0,0,0,.9,1.407,1.2,1.2,0,0,0,.256.028,1.18,1.18,0,0,0,1.151-.925,22.962,22.962,0,0,1,1.514-4.533,1.18,1.18,0,0,0-.586-1.562Zm0,0" transform="translate(-155.923 -68.011)" fill="#7817aa"/>
      <path id="Trazado_67703" data-name="Trazado 67703" d="M320.754,368.492a1.18,1.18,0,0,0-1.18,1.18v5.034a1.18,1.18,0,1,0,2.36,0v-5.034a1.18,1.18,0,0,0-1.18-1.18Zm0,0" transform="translate(-153.77 -109.536)" fill="#7817aa"/>
      <path id="Trazado_67704" data-name="Trazado 67704" d="M259.98,436.331h-5.035a1.18,1.18,0,1,0,0,2.36h5.035a1.18,1.18,0,0,0,0-2.36Zm0,0" transform="translate(-101.762 -163.149)" fill="#7817aa"/>
      <path id="Trazado_67705" data-name="Trazado 67705" d="M311.438,422.507a1.18,1.18,0,0,0-1.18,1.18v1.719h-1.293a1.18,1.18,0,0,0,0,2.36h1.687a1.969,1.969,0,0,0,1.966-1.967v-2.113a1.18,1.18,0,0,0-1.18-1.18Zm0,0" transform="translate(-144.453 -152.224)" fill="#7817aa"/>
    </g>
  </g>
</svg>
