<svg xmlns="http://www.w3.org/2000/svg" width="84.717" height="69.945" viewBox="0 0 84.717 69.945">
  <g id="Grupo_38945" data-name="Grupo 38945" transform="translate(-7005.283 -1979)">
    <circle id="Elipse_1792" data-name="Elipse 1792" cx="34" cy="34" r="34" transform="translate(7022 1979)" fill="#d1d6eb"/>
    <g id="Grupo_38887" data-name="Grupo 38887" transform="translate(6900.283 1749.11)">
      <path id="Trazado_67723" data-name="Trazado 67723" d="M254.818,233.857a16.177,16.177,0,0,1,22.72,12.96,1.271,1.271,0,0,0,1.261,1.132,1.225,1.225,0,0,0,.14-.008,1.272,1.272,0,0,0,1.125-1.4,18.718,18.718,0,0,0-26.292-15,1.27,1.27,0,1,0,1.046,2.315Zm0,0" transform="translate(-114.598 0)" fill="#7817aa"/>
      <path id="Trazado_67725" data-name="Trazado 67725" d="M294.378,274.116a4.031,4.031,0,1,0,2.85,1.181,4,4,0,0,0-2.85-1.181Zm1.49,4.031a1.49,1.49,0,1,1-1.49-1.49,1.49,1.49,0,0,1,1.49,1.49Zm0,0" transform="translate(-143.495 -34.239)" fill="#7817aa"/>
      <path id="Trazado_67726" data-name="Trazado 67726" d="M154.334,282.06a18.854,18.854,0,0,0,10.79-13.046,1.271,1.271,0,1,0-2.48-.556,16.3,16.3,0,0,1-9.3,11.26,25.572,25.572,0,0,0-7.287-9.039,4.029,4.029,0,1,0-6.974-3.869,25.31,25.31,0,0,0-8.376-1.516c0-.131-.009-.26-.009-.39a16.017,16.017,0,0,1,5.071-11.757,1.271,1.271,0,1,0-1.745-1.848,18.536,18.536,0,0,0-5.868,13.605c0,.162,0,.324.007.488A25.46,25.46,0,0,0,105,290.716a25.19,25.19,0,0,0,5.213,15.427,1.27,1.27,0,1,0,2.018-1.543,22.679,22.679,0,0,1-4.69-13.883A22.885,22.885,0,1,1,130.426,313.6a22.636,22.636,0,0,1-14.289-5.008,1.27,1.27,0,1,0-1.588,1.984,25.427,25.427,0,0,0,39.784-28.517ZM141.8,267.189a1.489,1.489,0,0,1,2.18,2.026,25.488,25.488,0,0,0-2.547-1.416,1.479,1.479,0,0,1,.368-.61Zm0,0" transform="translate(0 -16.306)" fill="#7817aa"/>
      <path id="Trazado_67727" data-name="Trazado 67727" d="M156.086,383.476a17.941,17.941,0,1,0-17.941-17.941,17.961,17.961,0,0,0,17.941,17.941Zm0-33.342a15.4,15.4,0,1,1-15.4,15.4,15.418,15.418,0,0,1,15.4-15.4Zm0,0" transform="translate(-25.66 -91.124)" fill="#7817aa"/>
      <path id="Trazado_67728" data-name="Trazado 67728" d="M176.842,441a4.174,4.174,0,1,0-4.174-4.174A4.179,4.179,0,0,0,176.842,441Zm0-5.807a1.633,1.633,0,1,1-1.633,1.634,1.636,1.636,0,0,1,1.633-1.634Zm0,0" transform="translate(-52.388 -156.973)" fill="#7817aa"/>
      <path id="Trazado_67729" data-name="Trazado 67729" d="M229.733,441a4.174,4.174,0,1,0-4.174-4.174A4.178,4.178,0,0,0,229.733,441Zm0-5.807a1.633,1.633,0,1,1-1.633,1.634,1.636,1.636,0,0,1,1.633-1.634Zm0,0" transform="translate(-93.335 -156.973)" fill="#7817aa"/>
      <path id="Trazado_67730" data-name="Trazado 67730" d="M176.842,392.821a4.174,4.174,0,1,0-4.174-4.175,4.179,4.179,0,0,0,4.174,4.175Zm0-5.808a1.633,1.633,0,1,1-1.633,1.633,1.635,1.635,0,0,1,1.633-1.633Zm0,0" transform="translate(-52.388 -119.676)" fill="#7817aa"/>
      <path id="Trazado_67731" data-name="Trazado 67731" d="M229.733,392.821a4.174,4.174,0,1,0-4.174-4.175,4.179,4.179,0,0,0,4.174,4.175Zm0-5.808a1.633,1.633,0,1,1-1.633,1.633,1.635,1.635,0,0,1,1.633-1.633Zm0,0" transform="translate(-93.335 -119.676)" fill="#7817aa"/>
    </g>
  </g>
</svg>
