<svg xmlns="http://www.w3.org/2000/svg" xmlns:xlink="http://www.w3.org/1999/xlink" width="925.789" height="436.132" viewBox="0 0 925.789 436.132">
  <defs>
    <clipPath id="clip-path">
      <rect id="Rectángulo_25728" data-name="Rectángulo 25728" width="221.779" height="108.237" transform="translate(221.779 108.237) rotate(180)" fill="none"/>
    </clipPath>
    <clipPath id="clip-path-2">
      <rect id="Rectángulo_25729" data-name="Rectángulo 25729" width="178.293" height="87.014" fill="none"/>
    </clipPath>
  </defs>
  <g id="Grupo_26940" data-name="Grupo 26940" transform="translate(1.851)">
    <circle id="Elipse_1789" data-name="Elipse 1789" cx="9.02" cy="9.02" r="9.02" transform="matrix(0.987, -0.16, 0.16, 0.987, 0, 395.847)" fill="none" stroke="#bfbfbf" stroke-miterlimit="10" stroke-width="3.227" opacity="0.5"/>
    <circle id="Elipse_1790" data-name="Elipse 1790" cx="9.02" cy="9.02" r="9.02" transform="translate(673.05 311.122)" fill="none" stroke="#bfbfbf" stroke-miterlimit="10" stroke-width="3.227" opacity="0.5"/>
    <g id="Grupo_26920" data-name="Grupo 26920" transform="translate(0.295 25.245)" opacity="0.5">
      <line id="Línea_209" data-name="Línea 209" y2="20.162" transform="translate(10.081)" fill="none" stroke="#bfbfbf" stroke-linecap="round" stroke-linejoin="round" stroke-width="3.227"/>
      <line id="Línea_210" data-name="Línea 210" x1="20.162" transform="translate(0 10.081)" fill="none" stroke="#bfbfbf" stroke-linecap="round" stroke-linejoin="round" stroke-width="3.227"/>
    </g>
    <g id="Grupo_26921" data-name="Grupo 26921" transform="translate(41.679 25.245)" opacity="0.5">
      <line id="Línea_211" data-name="Línea 211" y2="20.162" transform="translate(10.081)" fill="none" stroke="#bfbfbf" stroke-linecap="round" stroke-linejoin="round" stroke-width="3.227"/>
      <line id="Línea_212" data-name="Línea 212" x1="20.162" transform="translate(0 10.081)" fill="none" stroke="#bfbfbf" stroke-linecap="round" stroke-linejoin="round" stroke-width="3.227"/>
    </g>
    <g id="Grupo_26922" data-name="Grupo 26922" transform="translate(83.064 25.245)" opacity="0.5">
      <line id="Línea_213" data-name="Línea 213" y2="20.162" transform="translate(10.081)" fill="none" stroke="#bfbfbf" stroke-linecap="round" stroke-linejoin="round" stroke-width="3.227"/>
      <line id="Línea_214" data-name="Línea 214" x1="20.162" transform="translate(0 10.081)" fill="none" stroke="#bfbfbf" stroke-linecap="round" stroke-linejoin="round" stroke-width="3.227"/>
    </g>
    <g id="Grupo_26925" data-name="Grupo 26925" transform="translate(824.563 258.781)">
      <g id="Grupo_26923" data-name="Grupo 26923" transform="translate(0 37.431)" opacity="0.5">
        <line id="Línea_215" data-name="Línea 215" x1="14.256" y2="14.256" fill="none" stroke="#bfbfbf" stroke-linecap="round" stroke-linejoin="round" stroke-width="3.227"/>
        <line id="Línea_216" data-name="Línea 216" x1="14.256" y1="14.256" fill="none" stroke="#bfbfbf" stroke-linecap="round" stroke-linejoin="round" stroke-width="3.227"/>
      </g>
      <g id="Grupo_26924" data-name="Grupo 26924" transform="translate(37.431)" opacity="0.5">
        <line id="Línea_217" data-name="Línea 217" x1="14.256" y2="14.256" fill="none" stroke="#bfbfbf" stroke-linecap="round" stroke-linejoin="round" stroke-width="3.227"/>
        <line id="Línea_218" data-name="Línea 218" x1="14.256" y1="14.256" fill="none" stroke="#bfbfbf" stroke-linecap="round" stroke-linejoin="round" stroke-width="3.227"/>
      </g>
    </g>
    <g id="Grupo_26929" data-name="Grupo 26929" transform="translate(787.132 302.336)">
      <g id="Grupo_26926" data-name="Grupo 26926" opacity="0.5">
        <line id="Línea_219" data-name="Línea 219" x1="14.256" y1="14.256" fill="none" stroke="#bfbfbf" stroke-linecap="round" stroke-linejoin="round" stroke-width="3.227"/>
        <line id="Línea_220" data-name="Línea 220" y1="14.256" x2="14.256" fill="none" stroke="#bfbfbf" stroke-linecap="round" stroke-linejoin="round" stroke-width="3.227"/>
      </g>
      <g id="Grupo_26927" data-name="Grupo 26927" transform="translate(37.431 37.431)" opacity="0.5">
        <line id="Línea_221" data-name="Línea 221" x1="14.256" y1="14.256" fill="none" stroke="#bfbfbf" stroke-linecap="round" stroke-linejoin="round" stroke-width="3.227"/>
        <line id="Línea_222" data-name="Línea 222" y1="14.256" x2="14.256" fill="none" stroke="#bfbfbf" stroke-linecap="round" stroke-linejoin="round" stroke-width="3.227"/>
      </g>
      <g id="Grupo_26928" data-name="Grupo 26928" transform="translate(74.862 74.862)" opacity="0.5">
        <line id="Línea_223" data-name="Línea 223" x1="14.256" y1="14.256" fill="none" stroke="#bfbfbf" stroke-linecap="round" stroke-linejoin="round" stroke-width="3.227"/>
        <line id="Línea_224" data-name="Línea 224" y1="14.256" x2="14.256" fill="none" stroke="#bfbfbf" stroke-linecap="round" stroke-linejoin="round" stroke-width="3.227"/>
      </g>
    </g>
    <g id="Grupo_26932" data-name="Grupo 26932" transform="translate(535.115 0)">
      <g id="Grupo_26931" data-name="Grupo 26931" transform="translate(0)" clip-path="url(#clip-path)">
        <g id="Grupo_26930" data-name="Grupo 26930" transform="translate(-2.374 -115.917)" opacity="0.5">
          <line id="Línea_225" data-name="Línea 225" x1="114.052" y1="114.052" transform="translate(105.048)" fill="none" stroke="#bfbfbf" stroke-linecap="round" stroke-linejoin="round" stroke-width="3.227"/>
          <line id="Línea_226" data-name="Línea 226" x1="114.052" y1="114.052" transform="translate(97.544 7.503)" fill="none" stroke="#bfbfbf" stroke-linecap="round" stroke-linejoin="round" stroke-width="3.227"/>
          <line id="Línea_227" data-name="Línea 227" x1="114.052" y1="114.052" transform="translate(90.041 15.007)" fill="none" stroke="#bfbfbf" stroke-linecap="round" stroke-linejoin="round" stroke-width="3.227"/>
          <line id="Línea_228" data-name="Línea 228" x1="114.052" y1="114.052" transform="translate(82.538 22.51)" fill="none" stroke="#bfbfbf" stroke-linecap="round" stroke-linejoin="round" stroke-width="3.227"/>
          <line id="Línea_229" data-name="Línea 229" x1="114.052" y1="114.052" transform="translate(75.034 30.014)" fill="none" stroke="#bfbfbf" stroke-linecap="round" stroke-linejoin="round" stroke-width="3.227"/>
          <line id="Línea_230" data-name="Línea 230" x1="114.052" y1="114.052" transform="translate(67.531 37.517)" fill="none" stroke="#bfbfbf" stroke-linecap="round" stroke-linejoin="round" stroke-width="3.227"/>
          <line id="Línea_231" data-name="Línea 231" x1="114.052" y1="114.052" transform="translate(60.027 45.02)" fill="none" stroke="#bfbfbf" stroke-linecap="round" stroke-linejoin="round" stroke-width="3.227"/>
          <line id="Línea_232" data-name="Línea 232" x1="114.052" y1="114.052" transform="translate(52.524 52.524)" fill="none" stroke="#bfbfbf" stroke-linecap="round" stroke-linejoin="round" stroke-width="3.227"/>
          <line id="Línea_233" data-name="Línea 233" x1="114.052" y1="114.052" transform="translate(45.021 60.027)" fill="none" stroke="#bfbfbf" stroke-linecap="round" stroke-linejoin="round" stroke-width="3.227"/>
          <line id="Línea_234" data-name="Línea 234" x1="114.052" y1="114.052" transform="translate(37.517 67.531)" fill="none" stroke="#bfbfbf" stroke-linecap="round" stroke-linejoin="round" stroke-width="3.227"/>
          <line id="Línea_235" data-name="Línea 235" x1="114.052" y1="114.052" transform="translate(30.014 75.034)" fill="none" stroke="#bfbfbf" stroke-linecap="round" stroke-linejoin="round" stroke-width="3.227"/>
          <line id="Línea_236" data-name="Línea 236" x1="114.052" y1="114.052" transform="translate(22.51 82.538)" fill="none" stroke="#bfbfbf" stroke-linecap="round" stroke-linejoin="round" stroke-width="3.227"/>
          <line id="Línea_237" data-name="Línea 237" x1="114.052" y1="114.052" transform="translate(15.007 90.041)" fill="none" stroke="#bfbfbf" stroke-linecap="round" stroke-linejoin="round" stroke-width="3.227"/>
          <line id="Línea_238" data-name="Línea 238" x1="114.052" y1="114.052" transform="translate(7.503 97.544)" fill="none" stroke="#bfbfbf" stroke-linecap="round" stroke-linejoin="round" stroke-width="3.227"/>
          <line id="Línea_239" data-name="Línea 239" x1="114.052" y1="114.052" transform="translate(0 105.048)" fill="none" stroke="#bfbfbf" stroke-linecap="round" stroke-linejoin="round" stroke-width="3.227"/>
        </g>
      </g>
    </g>
    <g id="Grupo_26935" data-name="Grupo 26935" transform="translate(583.812 346.773)">
      <g id="Grupo_26934" data-name="Grupo 26934" clip-path="url(#clip-path-2)">
        <g id="Grupo_26933" data-name="Grupo 26933" transform="translate(4.063 4.063)" opacity="0.5">
          <line id="Línea_240" data-name="Línea 240" x2="91.689" y2="91.689" transform="translate(0 84.45)" fill="none" stroke="#bfbfbf" stroke-linecap="round" stroke-linejoin="round" stroke-width="3.227"/>
          <line id="Línea_241" data-name="Línea 241" x2="91.689" y2="91.689" transform="translate(6.032 78.418)" fill="none" stroke="#bfbfbf" stroke-linecap="round" stroke-linejoin="round" stroke-width="3.227"/>
          <line id="Línea_242" data-name="Línea 242" x2="91.689" y2="91.689" transform="translate(12.064 72.386)" fill="none" stroke="#bfbfbf" stroke-linecap="round" stroke-linejoin="round" stroke-width="3.227"/>
          <line id="Línea_243" data-name="Línea 243" x2="91.689" y2="91.689" transform="translate(18.096 66.354)" fill="none" stroke="#bfbfbf" stroke-linecap="round" stroke-linejoin="round" stroke-width="3.227"/>
          <line id="Línea_244" data-name="Línea 244" x2="91.689" y2="91.689" transform="translate(24.129 60.322)" fill="none" stroke="#bfbfbf" stroke-linecap="round" stroke-linejoin="round" stroke-width="3.227"/>
          <line id="Línea_245" data-name="Línea 245" x2="91.689" y2="91.689" transform="translate(30.161 54.289)" fill="none" stroke="#bfbfbf" stroke-linecap="round" stroke-linejoin="round" stroke-width="3.227"/>
          <line id="Línea_246" data-name="Línea 246" x2="91.689" y2="91.689" transform="translate(36.193 48.257)" fill="none" stroke="#bfbfbf" stroke-linecap="round" stroke-linejoin="round" stroke-width="3.227"/>
          <line id="Línea_247" data-name="Línea 247" x2="91.689" y2="91.689" transform="translate(42.225 42.225)" fill="none" stroke="#bfbfbf" stroke-linecap="round" stroke-linejoin="round" stroke-width="3.227"/>
          <line id="Línea_248" data-name="Línea 248" x2="91.689" y2="91.689" transform="translate(48.257 36.193)" fill="none" stroke="#bfbfbf" stroke-linecap="round" stroke-linejoin="round" stroke-width="3.227"/>
          <line id="Línea_249" data-name="Línea 249" x2="91.689" y2="91.689" transform="translate(54.289 30.161)" fill="none" stroke="#bfbfbf" stroke-linecap="round" stroke-linejoin="round" stroke-width="3.227"/>
          <line id="Línea_250" data-name="Línea 250" x2="91.689" y2="91.689" transform="translate(60.322 24.129)" fill="none" stroke="#bfbfbf" stroke-linecap="round" stroke-linejoin="round" stroke-width="3.227"/>
          <line id="Línea_251" data-name="Línea 251" x2="91.689" y2="91.689" transform="translate(66.354 18.096)" fill="none" stroke="#bfbfbf" stroke-linecap="round" stroke-linejoin="round" stroke-width="3.227"/>
          <line id="Línea_252" data-name="Línea 252" x2="91.689" y2="91.689" transform="translate(72.386 12.064)" fill="none" stroke="#bfbfbf" stroke-linecap="round" stroke-linejoin="round" stroke-width="3.227"/>
          <line id="Línea_253" data-name="Línea 253" x2="91.689" y2="91.689" transform="translate(78.418 6.032)" fill="none" stroke="#bfbfbf" stroke-linecap="round" stroke-linejoin="round" stroke-width="3.227"/>
          <line id="Línea_254" data-name="Línea 254" x2="91.689" y2="91.689" transform="translate(84.45)" fill="none" stroke="#bfbfbf" stroke-linecap="round" stroke-linejoin="round" stroke-width="3.227"/>
        </g>
      </g>
    </g>
    <g id="Grupo_26939" data-name="Grupo 26939" transform="translate(657.588 126.405)" opacity="0.5">
      <g id="Grupo_26936" data-name="Grupo 26936">
        <path id="Trazado_67567" data-name="Trazado 67567" d="M1111.8,246.7a2.744,2.744,0,1,0-2.744-2.744A2.745,2.745,0,0,0,1111.8,246.7Z" transform="translate(-1061.484 -241.216)" fill="#fff" stroke="#bfbfbf" stroke-miterlimit="10" stroke-width="0.75"/>
        <path id="Trazado_67568" data-name="Trazado 67568" d="M1075.63,246.7a2.744,2.744,0,1,0-2.744-2.744A2.744,2.744,0,0,0,1075.63,246.7Z" transform="translate(-1049.102 -241.216)" fill="#fff" stroke="#bfbfbf" stroke-miterlimit="10" stroke-width="0.75"/>
        <path id="Trazado_67569" data-name="Trazado 67569" d="M1039.463,246.7a2.744,2.744,0,1,0-2.744-2.744A2.744,2.744,0,0,0,1039.463,246.7Z" transform="translate(-1036.719 -241.216)" fill="#fff" stroke="#bfbfbf" stroke-miterlimit="10" stroke-width="0.75"/>
      </g>
      <g id="Grupo_26937" data-name="Grupo 26937" transform="translate(0 23.784)">
        <path id="Trazado_67570" data-name="Trazado 67570" d="M1111.8,282.872a2.744,2.744,0,1,0-2.744-2.744A2.745,2.745,0,0,0,1111.8,282.872Z" transform="translate(-1061.484 -277.383)" fill="#fff" stroke="#bfbfbf" stroke-miterlimit="10" stroke-width="0.75"/>
        <path id="Trazado_67571" data-name="Trazado 67571" d="M1075.63,282.872a2.744,2.744,0,1,0-2.744-2.744A2.744,2.744,0,0,0,1075.63,282.872Z" transform="translate(-1049.102 -277.383)" fill="#fff" stroke="#bfbfbf" stroke-miterlimit="10" stroke-width="0.75"/>
        <path id="Trazado_67572" data-name="Trazado 67572" d="M1039.463,282.872a2.744,2.744,0,1,0-2.744-2.744A2.744,2.744,0,0,0,1039.463,282.872Z" transform="translate(-1036.719 -277.383)" fill="#fff" stroke="#bfbfbf" stroke-miterlimit="10" stroke-width="0.75"/>
      </g>
      <g id="Grupo_26938" data-name="Grupo 26938" transform="translate(0 47.568)">
        <path id="Trazado_67573" data-name="Trazado 67573" d="M1111.8,319.038a2.745,2.745,0,1,0-2.744-2.745A2.745,2.745,0,0,0,1111.8,319.038Z" transform="translate(-1061.484 -313.549)" fill="#fff" stroke="#bfbfbf" stroke-miterlimit="10" stroke-width="0.75"/>
        <path id="Trazado_67574" data-name="Trazado 67574" d="M1075.63,319.038a2.745,2.745,0,1,0-2.744-2.745A2.745,2.745,0,0,0,1075.63,319.038Z" transform="translate(-1049.102 -313.549)" fill="#fff" stroke="#bfbfbf" stroke-miterlimit="10" stroke-width="0.75"/>
        <path id="Trazado_67575" data-name="Trazado 67575" d="M1039.463,319.038a2.745,2.745,0,1,0-2.744-2.745A2.745,2.745,0,0,0,1039.463,319.038Z" transform="translate(-1036.719 -313.549)" fill="#fff" stroke="#bfbfbf" stroke-miterlimit="10" stroke-width="0.75"/>
      </g>
    </g>
    <path id="Trazado_67576" data-name="Trazado 67576" d="M1248.355,636.654,1123.518,511.817,1331.646,303.69" transform="translate(-408.849 -201.663)" fill="none" stroke="#bfbfbf" stroke-miterlimit="10" stroke-width="3.227" opacity="0.5"/>
  </g>
</svg>
